<?xml version="1.0" encoding="UTF-8" standalone="no"?>
<svg
   width="3839.6719"
   height="2160"
   viewBox="0 0 3839.6719 2160"
   version="1.1"
   id="svg877"
   xmlns="http://www.w3.org/2000/svg"
   xmlns:svg="http://www.w3.org/2000/svg">
  <defs
     id="defs864">
    <clipPath
       id="clip-2">
      <path
         clip-rule="nonzero"
         d="M 0,711 H 3840 V 2160 H 0 Z m 0,0"
         id="path193" />
    </clipPath>
    <clipPath
       id="clip-3">
      <path
         clip-rule="nonzero"
         d="m 531.08984,711.64062 -20.18359,0.30079 c -98.99609,6.35937 -155.23828,19.67968 -168.72656,39.96875 -8.79688,12.21875 -14.82032,28.39062 -18.07422,48.51953 l -45.33985,332.19141 -104.71093,59.2305 c -4.41797,66.7382 -12.34375,107.4023 -23.77344,122 C 87.792969,1368.5547 37.699219,1413.3633 0,1448.2773 H 0.015625 V 2160 L 3839.6406,2159.918 V 1418.25 h 0.031 c -16.8828,-3.1328 -34.461,-6.543 -52.7617,-10.2305 -66.4883,-15 -136.9414,-38 -211.3516,-69.0039 -28,-14.4062 -69.3594,-57.2304 -124.0781,-128.4765 l -86.8399,-42.5547 -38.0625,-107.7735 c -4.1992,-7.8906 -14.0273,-15.0625 -29.4765,-21.5195 -12.7422,-5.8516 -108.4922,-11.3203 -287.25,-16.4102 -9.5313,0.8594 -20.9414,3.6094 -34.2422,8.2188 -61.2305,32.0898 -95.4805,48.1406 -102.7696,48.1406 -0.6992,0 -1.1406,-0.1523 -1.3515,-0.4492 -0.6992,0.1289 -1.418,0.1992 -2.1485,0.1992 -11.5585,0 -26.4101,-16.2304 -44.5507,-48.6914 -7.9102,-6.4687 -17.0899,-11.0195 -27.5391,-13.6406 l -170.4883,0.832 c -33.3398,-12.9297 -55.6133,-19.37888 -66.8125,-19.37888 -1.0586,0 -2.0195,0.0586 -2.8906,0.16797 l -2.2773,0.0508 c -19.3125,3.87111 -32.8907,13.92971 -40.7618,30.17971 -46.9101,123.4101 -76.5,190.789 -88.7812,202.125 -1.9766,1.664 -3.5274,2.4961 -4.6485,2.4961 -0.8593,0 -1.4609,-0.4805 -1.8085,-1.4375 l -116.4415,54.1757 -155.5195,-14.082 c -9.7695,-3.0586 -19.1094,-9.6211 -28.0312,-19.6875 -23.8789,-49.3516 -40.7696,-76.7695 -50.6797,-82.2539 3.0195,-4.793 -36.7188,-10.375 -119.1992,-16.7266 -25.9688,-39.5898 -44.5313,-61.5898 -55.711,-65.9882 -48.0976,-9.7305 -77.7578,-14.6016 -88.9804,-14.6016 -1.2383,0 -2.25,0.059 -3.0391,0.1797 l -2.5508,0.039 c -0.1094,0 -0.207,0 -0.3203,0 -12.5898,0 -23.2188,10.5313 -31.8672,31.5704 -14.8633,84.1679 -25.4531,129.6914 -31.7695,136.5781 l -89.7305,23.4101 -52.9531,62.3282 c -38.918,-16.5469 -69.1485,-24.8204 -90.6992,-24.8204 -11.0977,0 -19.8985,2.1954 -26.3907,6.5821 -28.6484,22.9609 -57.0195,48.375 -85.1171,76.2422 h -0.043 c -43.9492,8.5976 -77.3672,13.4843 -100.25,14.664 -3.7383,0.2813 -7.25,0.4219 -10.5391,0.4219 -15.9804,0 -26.6797,-3.3242 -32.0976,-9.9766 -15.3907,-9.875 -30.0313,-43.5859 -43.9297,-101.1211 l -93.6016,-44.0234 c -3.6289,-58.3203 -8.3086,-90.7226 -14.0195,-97.2031 l -163.80471,-42.5195 c 2.57422,-97.461 1.61328,-151.60941 -2.88672,-162.44144 l -22.51562,-19.48047 c -61.21875,-13.62109 -93.42578,-26.46093 -96.61719,-38.50781 -8.38672,-8.12109 -17.02734,-43.97265 -25.92187,-107.57031 -3.71875,-9.32031 -8.66797,-16.91016 -14.84766,-22.74219 -73.27734,-27.71875 -152.48047,-41.6875 -237.61719,-41.89844 z m 0,0"
         id="path194" />
    </clipPath>
    <clipPath
       id="clip-4">
      <path
         clip-rule="nonzero"
         d="m 531.08984,711.64062 -20.18359,0.30079 c -98.99609,6.35937 -155.23828,19.67968 -168.72656,39.96875 -8.79688,12.21875 -14.82032,28.39062 -18.07422,48.51953 l -45.33985,332.19141 -104.71093,59.2305 c -4.41797,66.7382 -12.34375,107.4023 -23.77344,122 C 87.792969,1368.5547 37.699219,1413.3633 0,1448.2773 H 0.015625 V 2160 L 3839.6406,2159.918 V 1418.25 h 0.031 c -16.8828,-3.1328 -34.461,-6.543 -52.7617,-10.2305 -66.4883,-15 -136.9414,-38 -211.3516,-69.0039 -28,-14.4062 -69.3594,-57.2304 -124.0781,-128.4765 l -86.8399,-42.5547 -38.0625,-107.7735 c -4.1992,-7.8906 -14.0273,-15.0625 -29.4765,-21.5195 -12.7422,-5.8516 -108.4922,-11.3203 -287.25,-16.4102 -9.5313,0.8594 -20.9414,3.6094 -34.2422,8.2188 -61.2305,32.0898 -95.4805,48.1406 -102.7696,48.1406 -0.6992,0 -1.1406,-0.1523 -1.3515,-0.4492 -0.6992,0.1289 -1.418,0.1992 -2.1485,0.1992 -11.5585,0 -26.4101,-16.2304 -44.5507,-48.6914 -7.9102,-6.4687 -17.0899,-11.0195 -27.5391,-13.6406 l -170.4883,0.832 c -33.3398,-12.9297 -55.6133,-19.37888 -66.8125,-19.37888 -1.0586,0 -2.0195,0.0586 -2.8906,0.16797 l -2.2773,0.0508 c -19.3125,3.87111 -32.8907,13.92971 -40.7618,30.17971 -46.9101,123.4101 -76.5,190.789 -88.7812,202.125 -1.9766,1.664 -3.5274,2.4961 -4.6485,2.4961 -0.8593,0 -1.4609,-0.4805 -1.8085,-1.4375 l -116.4415,54.1757 -155.5195,-14.082 c -9.7695,-3.0586 -19.1094,-9.6211 -28.0312,-19.6875 -23.8789,-49.3516 -40.7696,-76.7695 -50.6797,-82.2539 3.0195,-4.793 -36.7188,-10.375 -119.1992,-16.7266 -25.9688,-39.5898 -44.5313,-61.5898 -55.711,-65.9882 -48.0976,-9.7305 -77.7578,-14.6016 -88.9804,-14.6016 -1.2383,0 -2.25,0.059 -3.0391,0.1797 l -2.5508,0.039 c -0.1094,0 -0.207,0 -0.3203,0 -12.5898,0 -23.2188,10.5313 -31.8672,31.5704 -14.8633,84.1679 -25.4531,129.6914 -31.7695,136.5781 l -89.7305,23.4101 -52.9531,62.3282 c -38.918,-16.5469 -69.1485,-24.8204 -90.6992,-24.8204 -11.0977,0 -19.8985,2.1954 -26.3907,6.5821 -28.6484,22.9609 -57.0195,48.375 -85.1171,76.2422 h -0.043 c -43.9492,8.5976 -77.3672,13.4843 -100.25,14.664 -3.7383,0.2813 -7.25,0.4219 -10.5391,0.4219 -15.9804,0 -26.6797,-3.3242 -32.0976,-9.9766 -15.3907,-9.875 -30.0313,-43.5859 -43.9297,-101.1211 l -93.6016,-44.0234 c -3.6289,-58.3203 -8.3086,-90.7226 -14.0195,-97.2031 l -163.80471,-42.5195 c 2.57422,-97.461 1.61328,-151.60941 -2.88672,-162.44144 l -22.51562,-19.48047 c -61.21875,-13.62109 -93.42578,-26.46093 -96.61719,-38.50781 -8.38672,-8.12109 -17.02734,-43.97265 -25.92187,-107.57031 -3.71875,-9.32031 -8.66797,-16.91016 -14.84766,-22.74219 -73.27734,-27.71875 -152.48047,-41.6875 -237.61719,-41.89844 z m 0,0"
         id="path195" />
    </clipPath>
    <radialGradient
       id="radial-pattern-1"
       gradientUnits="userSpaceOnUse"
       cx="212.18851"
       cy="533.05573"
       fx="212.18851"
       fy="533.05573"
       r="1920.8025"
       gradientTransform="translate(1707.63,546.94)">
      <stop
         offset="0"
         stop-color="rgb(99.435425%, 59.468079%, 54.76532%)"
         stop-opacity="1"
         id="stop195" />
      <stop
         offset="0.015625"
         stop-color="rgb(99.134827%, 59.22699%, 54.530334%)"
         stop-opacity="1"
         id="stop196" />
      <stop
         offset="0.0273438"
         stop-color="rgb(98.876953%, 59.020996%, 54.327393%)"
         stop-opacity="1"
         id="stop197" />
      <stop
         offset="0.0390625"
         stop-color="rgb(98.620605%, 58.813477%, 54.125977%)"
         stop-opacity="1"
         id="stop198" />
      <stop
         offset="0.0507812"
         stop-color="rgb(98.362732%, 58.607483%, 53.923035%)"
         stop-opacity="1"
         id="stop199" />
      <stop
         offset="0.0625"
         stop-color="rgb(98.104858%, 58.399963%, 53.721619%)"
         stop-opacity="1"
         id="stop200" />
      <stop
         offset="0.0742188"
         stop-color="rgb(97.848511%, 58.19397%, 53.518677%)"
         stop-opacity="1"
         id="stop201" />
      <stop
         offset="0.0859375"
         stop-color="rgb(97.590637%, 57.98645%, 53.317261%)"
         stop-opacity="1"
         id="stop202" />
      <stop
         offset="0.0976562"
         stop-color="rgb(97.332764%, 57.780457%, 53.114319%)"
         stop-opacity="1"
         id="stop203" />
      <stop
         offset="0.109375"
         stop-color="rgb(97.076416%, 57.572937%, 52.912903%)"
         stop-opacity="1"
         id="stop204" />
      <stop
         offset="0.121094"
         stop-color="rgb(96.818542%, 57.366943%, 52.709961%)"
         stop-opacity="1"
         id="stop205" />
      <stop
         offset="0.132812"
         stop-color="rgb(96.560669%, 57.159424%, 52.508545%)"
         stop-opacity="1"
         id="stop206" />
      <stop
         offset="0.144531"
         stop-color="rgb(96.304321%, 56.95343%, 52.305603%)"
         stop-opacity="1"
         id="stop207" />
      <stop
         offset="0.15625"
         stop-color="rgb(96.046448%, 56.745911%, 52.104187%)"
         stop-opacity="1"
         id="stop208" />
      <stop
         offset="0.167969"
         stop-color="rgb(95.788574%, 56.538391%, 51.901245%)"
         stop-opacity="1"
         id="stop209" />
      <stop
         offset="0.179688"
         stop-color="rgb(95.532227%, 56.332397%, 51.699829%)"
         stop-opacity="1"
         id="stop210" />
      <stop
         offset="0.191406"
         stop-color="rgb(95.274353%, 56.124878%, 51.496887%)"
         stop-opacity="1"
         id="stop211" />
      <stop
         offset="0.203125"
         stop-color="rgb(95.016479%, 55.918884%, 51.295471%)"
         stop-opacity="1"
         id="stop212" />
      <stop
         offset="0.214844"
         stop-color="rgb(94.760132%, 55.711365%, 51.092529%)"
         stop-opacity="1"
         id="stop213" />
      <stop
         offset="0.226562"
         stop-color="rgb(94.502258%, 55.505371%, 50.891113%)"
         stop-opacity="1"
         id="stop214" />
      <stop
         offset="0.238281"
         stop-color="rgb(94.244385%, 55.297852%, 50.688171%)"
         stop-opacity="1"
         id="stop215" />
      <stop
         offset="0.25"
         stop-color="rgb(93.988037%, 55.091858%, 50.486755%)"
         stop-opacity="1"
         id="stop216" />
      <stop
         offset="0.261719"
         stop-color="rgb(93.772888%, 54.919434%, 50.317383%)"
         stop-opacity="1"
         id="stop217" />
      <stop
         offset="0.269531"
         stop-color="rgb(93.60199%, 54.782104%, 50.183105%)"
         stop-opacity="1"
         id="stop218" />
      <stop
         offset="0.277344"
         stop-color="rgb(93.429565%, 54.64325%, 50.047302%)"
         stop-opacity="1"
         id="stop219" />
      <stop
         offset="0.285156"
         stop-color="rgb(93.258667%, 54.50592%, 49.913025%)"
         stop-opacity="1"
         id="stop220" />
      <stop
         offset="0.292969"
         stop-color="rgb(93.087769%, 54.367065%, 49.778748%)"
         stop-opacity="1"
         id="stop221" />
      <stop
         offset="0.300781"
         stop-color="rgb(92.915344%, 54.229736%, 49.642944%)"
         stop-opacity="1"
         id="stop222" />
      <stop
         offset="0.308594"
         stop-color="rgb(92.744446%, 54.092407%, 49.508667%)"
         stop-opacity="1"
         id="stop223" />
      <stop
         offset="0.316406"
         stop-color="rgb(92.572021%, 53.953552%, 49.37439%)"
         stop-opacity="1"
         id="stop224" />
      <stop
         offset="0.324219"
         stop-color="rgb(92.401123%, 53.816223%, 49.238586%)"
         stop-opacity="1"
         id="stop225" />
      <stop
         offset="0.332031"
         stop-color="rgb(92.228699%, 53.678894%, 49.104309%)"
         stop-opacity="1"
         id="stop226" />
      <stop
         offset="0.339844"
         stop-color="rgb(92.0578%, 53.540039%, 48.970032%)"
         stop-opacity="1"
         id="stop227" />
      <stop
         offset="0.347656"
         stop-color="rgb(91.886902%, 53.40271%, 48.834229%)"
         stop-opacity="1"
         id="stop228" />
      <stop
         offset="0.355469"
         stop-color="rgb(91.714478%, 53.265381%, 48.699951%)"
         stop-opacity="1"
         id="stop229" />
      <stop
         offset="0.363281"
         stop-color="rgb(91.543579%, 53.126526%, 48.565674%)"
         stop-opacity="1"
         id="stop230" />
      <stop
         offset="0.371094"
         stop-color="rgb(91.371155%, 52.989197%, 48.429871%)"
         stop-opacity="1"
         id="stop231" />
      <stop
         offset="0.378906"
         stop-color="rgb(91.113281%, 52.781677%, 48.228455%)"
         stop-opacity="1"
         id="stop232" />
      <stop
         offset="0.394531"
         stop-color="rgb(90.769958%, 52.507019%, 47.958374%)"
         stop-opacity="1"
         id="stop233" />
      <stop
         offset="0.410156"
         stop-color="rgb(90.428162%, 52.230835%, 47.688293%)"
         stop-opacity="1"
         id="stop234" />
      <stop
         offset="0.425781"
         stop-color="rgb(90.084839%, 51.954651%, 47.419739%)"
         stop-opacity="1"
         id="stop235" />
      <stop
         offset="0.441406"
         stop-color="rgb(89.741516%, 51.678467%, 47.149658%)"
         stop-opacity="1"
         id="stop236" />
      <stop
         offset="0.457031"
         stop-color="rgb(89.398193%, 51.403809%, 46.879578%)"
         stop-opacity="1"
         id="stop237" />
      <stop
         offset="0.472656"
         stop-color="rgb(89.054871%, 51.127625%, 46.611023%)"
         stop-opacity="1"
         id="stop238" />
      <stop
         offset="0.488281"
         stop-color="rgb(88.711548%, 50.85144%, 46.340942%)"
         stop-opacity="1"
         id="stop239" />
      <stop
         offset="0.503906"
         stop-color="rgb(88.412476%, 50.610352%, 46.104431%)"
         stop-opacity="1"
         id="stop240" />
      <stop
         offset="0.515625"
         stop-color="rgb(88.154602%, 50.404358%, 45.903015%)"
         stop-opacity="1"
         id="stop241" />
      <stop
         offset="0.527344"
         stop-color="rgb(87.896729%, 50.196838%, 45.700073%)"
         stop-opacity="1"
         id="stop242" />
      <stop
         offset="0.539062"
         stop-color="rgb(87.640381%, 49.990845%, 45.498657%)"
         stop-opacity="1"
         id="stop243" />
      <stop
         offset="0.550781"
         stop-color="rgb(87.382507%, 49.783325%, 45.295715%)"
         stop-opacity="1"
         id="stop244" />
      <stop
         offset="0.5625"
         stop-color="rgb(87.124634%, 49.577332%, 45.094299%)"
         stop-opacity="1"
         id="stop245" />
      <stop
         offset="0.574219"
         stop-color="rgb(86.868286%, 49.369812%, 44.891357%)"
         stop-opacity="1"
         id="stop246" />
      <stop
         offset="0.585938"
         stop-color="rgb(86.610413%, 49.163818%, 44.689941%)"
         stop-opacity="1"
         id="stop247" />
      <stop
         offset="0.597656"
         stop-color="rgb(86.352539%, 48.956299%, 44.487%)"
         stop-opacity="1"
         id="stop248" />
      <stop
         offset="0.609375"
         stop-color="rgb(86.096191%, 48.750305%, 44.285583%)"
         stop-opacity="1"
         id="stop249" />
      <stop
         offset="0.621094"
         stop-color="rgb(85.838318%, 48.542786%, 44.082642%)"
         stop-opacity="1"
         id="stop250" />
      <stop
         offset="0.632812"
         stop-color="rgb(85.623169%, 48.370361%, 43.914795%)"
         stop-opacity="1"
         id="stop251" />
      <stop
         offset="0.640625"
         stop-color="rgb(85.452271%, 48.233032%, 43.778992%)"
         stop-opacity="1"
         id="stop252" />
      <stop
         offset="0.648438"
         stop-color="rgb(85.281372%, 48.094177%, 43.644714%)"
         stop-opacity="1"
         id="stop253" />
      <stop
         offset="0.65625"
         stop-color="rgb(85.108948%, 47.956848%, 43.510437%)"
         stop-opacity="1"
         id="stop254" />
      <stop
         offset="0.664062"
         stop-color="rgb(84.938049%, 47.819519%, 43.374634%)"
         stop-opacity="1"
         id="stop255" />
      <stop
         offset="0.671875"
         stop-color="rgb(84.765625%, 47.680664%, 43.240356%)"
         stop-opacity="1"
         id="stop256" />
      <stop
         offset="0.679688"
         stop-color="rgb(84.594727%, 47.543335%, 43.106079%)"
         stop-opacity="1"
         id="stop257" />
      <stop
         offset="0.6875"
         stop-color="rgb(84.422302%, 47.406006%, 42.970276%)"
         stop-opacity="1"
         id="stop258" />
      <stop
         offset="0.695312"
         stop-color="rgb(84.165955%, 47.198486%, 42.76886%)"
         stop-opacity="1"
         id="stop259" />
      <stop
         offset="0.710938"
         stop-color="rgb(83.822632%, 46.922302%, 42.498779%)"
         stop-opacity="1"
         id="stop260" />
      <stop
         offset="0.726562"
         stop-color="rgb(83.479309%, 46.647644%, 42.228699%)"
         stop-opacity="1"
         id="stop261" />
      <stop
         offset="0.742188"
         stop-color="rgb(83.135986%, 46.37146%, 41.960144%)"
         stop-opacity="1"
         id="stop262" />
      <stop
         offset="0.757812"
         stop-color="rgb(82.835388%, 46.130371%, 41.723633%)"
         stop-opacity="1"
         id="stop263" />
      <stop
         offset="0.769531"
         stop-color="rgb(82.579041%, 45.922852%, 41.522217%)"
         stop-opacity="1"
         id="stop264" />
      <stop
         offset="0.78125"
         stop-color="rgb(82.321167%, 45.716858%, 41.319275%)"
         stop-opacity="1"
         id="stop265" />
      <stop
         offset="0.792969"
         stop-color="rgb(82.063293%, 45.509338%, 41.117859%)"
         stop-opacity="1"
         id="stop266" />
      <stop
         offset="0.804688"
         stop-color="rgb(81.806946%, 45.303345%, 40.914917%)"
         stop-opacity="1"
         id="stop267" />
      <stop
         offset="0.816406"
         stop-color="rgb(81.591797%, 45.13092%, 40.74707%)"
         stop-opacity="1"
         id="stop268" />
      <stop
         offset="0.824219"
         stop-color="rgb(81.420898%, 44.993591%, 40.611267%)"
         stop-opacity="1"
         id="stop269" />
      <stop
         offset="0.832031"
         stop-color="rgb(81.248474%, 44.854736%, 40.47699%)"
         stop-opacity="1"
         id="stop270" />
      <stop
         offset="0.839844"
         stop-color="rgb(81.077576%, 44.717407%, 40.342712%)"
         stop-opacity="1"
         id="stop271" />
      <stop
         offset="0.847656"
         stop-color="rgb(80.819702%, 44.509888%, 40.139771%)"
         stop-opacity="1"
         id="stop272" />
      <stop
         offset="0.863281"
         stop-color="rgb(80.476379%, 44.233704%, 39.86969%)"
         stop-opacity="1"
         id="stop273" />
      <stop
         offset="0.878906"
         stop-color="rgb(80.175781%, 43.992615%, 39.634705%)"
         stop-opacity="1"
         id="stop274" />
      <stop
         offset="0.890625"
         stop-color="rgb(79.919434%, 43.786621%, 39.431763%)"
         stop-opacity="1"
         id="stop275" />
      <stop
         offset="0.902344"
         stop-color="rgb(79.66156%, 43.579102%, 39.230347%)"
         stop-opacity="1"
         id="stop276" />
      <stop
         offset="0.914062"
         stop-color="rgb(79.447937%, 43.406677%, 39.060974%)"
         stop-opacity="1"
         id="stop277" />
      <stop
         offset="0.921875"
         stop-color="rgb(79.275513%, 43.269348%, 38.926697%)"
         stop-opacity="1"
         id="stop278" />
      <stop
         offset="0.929688"
         stop-color="rgb(79.017639%, 43.061829%, 38.723755%)"
         stop-opacity="1"
         id="stop279" />
      <stop
         offset="0.945312"
         stop-color="rgb(78.718567%, 42.82074%, 38.48877%)"
         stop-opacity="1"
         id="stop280" />
      <stop
         offset="0.957031"
         stop-color="rgb(78.503418%, 42.649841%, 38.319397%)"
         stop-opacity="1"
         id="stop281" />
      <stop
         offset="0.964844"
         stop-color="rgb(78.245544%, 42.442322%, 38.117981%)"
         stop-opacity="1"
         id="stop282" />
      <stop
         offset="0.980469"
         stop-color="rgb(77.989197%, 42.234802%, 37.915039%)"
         stop-opacity="1"
         id="stop283" />
      <stop
         offset="0.988281"
         stop-color="rgb(77.774048%, 42.062378%, 37.747192%)"
         stop-opacity="1"
         id="stop284" />
      <stop
         offset="1"
         stop-color="rgb(77.645874%, 41.960144%, 37.646484%)"
         stop-opacity="1"
         id="stop285" />
    </radialGradient>
  </defs>
  <g
     clip-path="url(#clip-2)"
     id="g868">
    <g
       clip-path="url(#clip-3)"
       id="g867">
      <g
         clip-path="url(#clip-4)"
         id="g866">
        <path
           fill-rule="nonzero"
           fill="url(#radial-pattern-1)"
           d="M 0,711.64062 V 2160 H 3839.6719 V 711.64062 Z m 0,0"
           id="path866"
           style="fill:url(#radial-pattern-1)" />
      </g>
    </g>
  </g>
</svg>
