<?xml version="1.0" encoding="UTF-8" standalone="no"?>
<svg
   width="3839.6719"
   height="2160"
   viewBox="0 0 3839.6719 2160"
   version="1.1"
   id="svg877"
   sodipodi:docname="oneagain.svg"
   inkscape:export-filename="one.svg"
   inkscape:export-xdpi="96"
   inkscape:export-ydpi="96"
   inkscape:version="1.4.2 (f4327f4, 2025-05-13)"
   xmlns:inkscape="http://www.inkscape.org/namespaces/inkscape"
   xmlns:sodipodi="http://sodipodi.sourceforge.net/DTD/sodipodi-0.dtd"
   xmlns="http://www.w3.org/2000/svg"
   xmlns:svg="http://www.w3.org/2000/svg">
  <sodipodi:namedview
     id="namedview1"
     pagecolor="#ffffff"
     bordercolor="#000000"
     borderopacity="0.25"
     inkscape:showpageshadow="2"
     inkscape:pageopacity="0.0"
     inkscape:pagecheckerboard="0"
     inkscape:deskcolor="#d1d1d1"
     inkscape:zoom="0.27269442"
     inkscape:cx="2059.0814"
     inkscape:cy="874.60535"
     inkscape:window-width="1920"
     inkscape:window-height="1051"
     inkscape:window-x="-9"
     inkscape:window-y="-9"
     inkscape:window-maximized="1"
     inkscape:current-layer="g876" />
  <defs
     id="defs864">
    <clipPath
       id="clip-11">
      <path
         clip-rule="nonzero"
         d="M 0,784 H 3840 V 2160 H 0 Z m 0,0"
         id="path671" />
    </clipPath>
    <clipPath
       id="clip-12">
      <path
         clip-rule="nonzero"
         d="m 566.55078,784.78906 c -41.04687,0 -72.92187,36.03125 -72.92187,78.67188 v 42.86718 c -19.77735,-0.79687 -18.89063,-8 -18.89063,-30.53906 v -40.84765 c 0,-16.92188 -13.72266,-30.64063 -30.64844,-30.64063 -0.99609,0 -2,0.0391 -3.01172,0.14063 -15.9375,1.51953 -27.64062,15.82031 -27.64062,31.82812 v 113.62109 c 0,16.91797 13.72266,30.64063 30.65234,30.64844 l 49.53907,-0.008 V 1465.285 l -14.14063,-0.01 c -44.60547,0 -42.73828,-12.3007 -42.73828,-56.9062 v -75.9375 c 0,-31.4727 -25.51563,-56.9844 -56.98438,-56.9844 -1.84765,0 -3.71484,0.09 -5.59765,0.2696 -29.625,2.8242 -51.38672,29.4023 -51.38672,59.164 v 211.2344 c 0,31.4726 25.51562,56.9844 56.98437,56.9961 l 99.72266,-0.012 v 0.012 h 14.14063 v 45.9453 c -4.76172,-3.1172 -9.16407,-4.9688 -13.19922,-5.5508 l -0.45703,0.023 c -1.14454,0.1172 -1.66016,0.7188 -1.54688,1.7969 3.07813,6.4492 5.78125,12.7539 8.10938,18.9141 l 3.20312,9.1328 c 1.54688,4.7695 2.85547,9.4492 3.92578,14.0352 h -0.0312 v 22.4882 c -2.03125,-1.9375 -4.24609,-4.0429 -6.64453,-6.3125 -24.25781,-22.7226 -43.58984,-37.9922 -57.99219,-45.8125 l -0.3125,-0.02 c -0.0234,0 -0.0469,0 -0.0703,0 -1.52344,0 -2.53125,1.3438 -3.02344,4.0313 0.13672,2.0234 1.33594,5.7539 3.59766,11.1835 l 14.77734,31.9688 C 320.74219,1674.7695 172.76562,1632.3359 0.0351562,1577.6328 H 0.015625 V 2160 l 3839.624975,-0.082 v -358.7852 h -0.012 c -5.4101,0.1875 -10.0586,0.4375 -13.957,0.7422 -157.5235,25.0352 -289.3125,39.3828 -395.3906,43.0469 l -161.1211,38.8633 v -492.5274 h 51.7695 c 44.9687,0 81.5508,-36.5781 81.5508,-81.5508 v -63.7578 c 0,-12.2851 -10,-22.2539 -22.25,-22.2539 h -0.012 c -12.2774,0 -22.25,9.9688 -22.25,22.2539 v 46.1563 c 0,24.4687 -19.9102,44.3828 -44.4102,44.3867 h -44.3984 v -191.3946 c 0,-36.8007 -29.9414,-66.7109 -66.7188,-66.7109 -17.8008,0 -34.5625,6.9414 -47.1601,19.5508 -12.6016,12.582 -19.5508,29.3203 -19.5508,47.1601 V 1473.5 h -36.4024 c -24.4883,0 -44.3984,-19.918 -44.3984,-44.3867 v -46.1563 c 0,-12.2812 -9.9688,-22.2539 -22.2578,-22.2539 -12.2617,0 -22.25,9.9727 -22.25,22.2539 v 63.7578 c 0,44.9727 36.5781,81.5547 81.5469,81.5547 h 43.7617 v 314.2422 h -0.059 c -3.7813,7.3633 -8.3828,16.4414 -13.793,27.2344 v 0 c -0.168,-0.9414 -0.3476,-1.9375 -0.5195,-2.9922 -0.25,-0.7305 -0.6094,-10.6992 -1.0899,-29.9101 -0.2304,-2.7422 -0.6093,-6.6094 -1.1406,-11.6055 -0.1797,-0.9922 -0.5586,-1.5 -1.1601,-1.5313 l -0.25,0.027 c -0.01,0 -0.02,0 -0.039,0 -0.6094,0 -2.1289,1.3047 -4.5508,3.9101 -3.3398,3.4024 -5.707,6.0625 -7.0898,7.9766 -3.1602,5.2695 -5.3399,9.3008 -6.5196,12.0859 v 0 c -0.1601,-3.7382 -0.3906,-7.4648 -0.6992,-11.1796 -0.4492,-5.3047 -1.0586,-10.2735 -1.8398,-14.9063 -0.1992,-1.5117 -1.1094,-6.0312 -2.7188,-13.5586 -1.4922,-7.1133 -2.6719,-10.668 -3.5429,-10.668 -0.09,0 -0.1875,0.047 -0.2774,0.1368 l -0.1328,0.019 c -0.3398,0.09 -0.6602,0.5508 -0.9492,1.3789 -2.7891,8.6367 -4.5196,14.1797 -5.1797,16.6289 -2.0508,8.0781 -3.4805,14.5547 -4.3008,19.4297 -0.7891,4.1055 -1.2695,9.1836 -1.4492,15.2383 -0.01,0.4726 -0.02,0.9414 -0.02,1.414 -8.5586,-12.8203 -13.5313,-19.9843 -14.9219,-21.4961 -3.2695,-4.332 -6.3789,-8.1757 -9.3281,-11.539 -5.6602,-6.6758 -11.1602,-11.5078 -16.4805,-14.5 l -0.2578,0.031 c -0.6328,0.168 -0.793,1.0196 -0.5,2.5547 6.9883,23.7891 11.8281,43.6563 14.539,59.6094 0.2891,1.875 0.5274,4.1016 0.7188,6.6797 -1.8789,-2.7266 -3.7188,-5.1602 -5.5078,-7.2969 l -2.7617,-3.3555 c -1.8008,-2.1211 -3.5391,-4.0117 -5.211,-5.6718 -1.6679,-1.6602 -3.2695,-3.0899 -4.8086,-4.2852 -3.082,-2.4609 -5.8711,-3.8672 -8.3515,-4.2227 l -0.211,0.01 c -0.5195,0.055 -0.7578,0.3281 -0.707,0.8242 1.4102,2.9492 2.6484,5.832 3.707,8.6484 l 1.461,4.1758 c 0.9023,2.75 1.6211,5.4375 2.1601,8.0586 0.7422,3.5234 1.1602,6.9297 1.2696,10.2187 v 0 c -1.3282,-1.289 -2.8985,-2.7773 -4.6797,-4.4687 -11.0899,-10.3906 -19.9297,-17.3711 -26.5196,-20.9492 l -0.1406,-0.01 c -0.01,0 -0.02,0 -0.039,0 -0.6914,0 -1.1484,0.6132 -1.3789,1.8437 0.059,0.9258 0.6094,2.6289 1.6485,5.1133 l 22.8008,49.3398 c 0.1093,0.2188 0.2187,0.4375 0.3281,0.6524 -6.6875,-4.168 -10.8086,-6.586 -12.3594,-7.25 l -5.0391,-2.5625 c -3.1406,-1.5039 -9.8085,-4.4414 -20.0195,-8.8164 -2.4492,-1.1133 -7.082,-2.875 -13.8789,-5.293 -2.4023,-0.7851 -4.3516,-1.3047 -5.8516,-1.5664 l -1.8906,-0.1953 c -0.059,0 -0.1211,0 -0.1797,0 -0.5898,0 -1.0586,0.1523 -1.4101,0.4648 l 1.75,3.2383 c 0.332,1 2.8594,4.4883 7.582,10.4727 2.0586,2.4492 4.3867,4.9843 6.9688,7.6015 0.9687,1.2032 5.4179,5.3125 13.3398,12.3321 1.1406,0.9843 2.2891,1.9492 3.4492,2.8984 -0.9609,-0.168 -1.9101,-0.3242 -2.8476,-0.4688 -1.6328,-0.25 -3.2305,-0.4648 -4.8008,-0.6445 l -2.3203,-0.2422 c -3.0586,-0.2851 -5.9922,-0.4297 -8.7696,-0.4297 l -1.4921,0.016 c -5.3594,0.1797 -9.379,0.6484 -12.0586,1.3984 -2.711,0.7891 -3.1993,1.7539 -1.4493,2.8906 1.75,0.5899 6.7774,1.8672 15.0977,3.8282 l 5.1523,1.4335 c 8.3672,2.4883 17.7579,5.504 28.1797,9.043 h -0.02 c -2.5625,0.2695 -5,0.6211 -7.3203,1.0508 -1.2227,0.168 -4.3789,0.8437 -9.4805,2.0273 -3.9609,0.9844 -7.6015,2.0743 -10.8906,3.2774 -0.9102,0.3281 -1.7891,0.664 -2.6289,1.0039 h -0.062 c -3.2578,0.1367 -6.4375,0.207 -9.5391,0.207 -5.4492,0 -10.6484,-0.2148 -15.6211,-0.6406 l -197.6367,-32.9063 c -25.5117,0.336 -49.4023,0.5079 -71.6719,0.5079 -109.0703,0 -179.1679,-4.0391 -210.3086,-12.1133 -90.8007,-14.5117 -244.6093,-62.8985 -461.4218,-145.1602 -22.6094,-6.7265 -51.0703,-11.625 -85.3672,-14.7031 -10.9024,-0.9922 -23,-1.4844 -36.293,-1.4844 -24.5586,0 -53.1992,1.6914 -85.8984,5.0742 -49.5117,9.5118 -91.8516,17.4141 -127.0508,23.7071 0.832,-0.7266 1.6719,-1.4453 2.5117,-2.1524 -0.1601,-0.1718 -0.6211,-0.2656 -1.3906,-0.289 l -0.7617,0.035 c -3.3203,0.375 -7.961,1.6211 -13.9297,3.7305 -0.3281,0.1445 -0.6602,0.2851 -0.9805,0.4297 0.4102,-0.4727 0.832,-0.9571 1.2617,-1.4531 9.0977,-13.2852 16.2383,-25.0743 21.418,-35.3633 1.4922,-2.7188 1.3633,-4.0782 -0.3672,-4.0782 -0.1914,0 -0.4023,0.016 -0.6328,0.051 h -0.207 l -2.5313,0.2461 c -2.4101,0.5508 -3.9297,0.9805 -4.582,1.2891 l -3.5664,1.4726 -11.4922,5.5977 c -3.9414,2.0234 -7.9102,4.168 -11.9102,6.4297 3.5118,-9.3828 6.5,-18.5821 8.9805,-27.5977 3.0391,-10.7617 5.2813,-21.3398 6.7109,-31.7344 l 0.918,-7.7578 c 0.5117,-5.1523 0.832,-10.2539 0.9414,-15.3125 l 0.01,-7.5547 c -0.09,-0.8945 -0.4062,-1.4023 -0.9687,-1.5234 l -0.168,0.02 c -2.082,1.0899 -9.5508,12.2969 -22.4219,33.625 -3.6992,7.0469 -8.539,16.4805 -14.5,28.3047 v -191.9179 h 28.0391 25.4531 c 14.0586,0 25.4571,-11.3985 25.4571,-25.4571 v -83.0859 c 0,-14.0625 -11.3985,-25.461 -25.4571,-25.461 v 0 H 1687 c -7.0312,0 -13.3789,2.8515 -17.9883,7.457 -4.6133,4.6015 -7.4609,10.9687 -7.4609,18 v 57.625 h -28.0313 V 1422.25 c 0,-32.5625 -26.3984,-58.9609 -58.9687,-58.9609 -32.5625,0 -58.961,26.3984 -58.961,58.9609 v 144.7344 h -38.4101 v -57.6211 c -0.01,-14.0625 -11.4102,-25.4649 -25.4688,-25.4649 v 0.01 h -0.012 c -14.0586,0 -25.4492,11.3946 -25.4492,25.4571 v 83.0859 c 0,14.0586 11.3984,25.461 25.4609,25.461 h 63.8789 v 103.0664 c -5.8515,-4.8125 -10.8515,-8.3477 -15.0195,-10.6094 l -0.1484,-0.01 h -0.031 c -0.7422,0 -1.2304,0.6562 -1.4687,1.9648 0.059,0.9883 0.6484,2.8008 1.75,5.4453 l 14.9179,32.2969 v 15.082 c -1.6093,-0.9297 -2.7695,-1.5429 -3.4492,-1.8359 l -5.3711,-2.7305 c -3.3281,-1.6015 -10.4492,-4.7343 -21.3281,-9.3945 -2.6133,-1.1836 -7.543,-3.0625 -14.7812,-5.6367 -2.5704,-0.836 -4.6407,-1.3906 -6.2305,-1.6719 l -2.0195,-0.207 c -0.07,0 -0.1289,0 -0.1914,0 -0.629,0 -1.129,0.164 -1.5079,0.4922 l 1.8789,3.457 c 0.3399,1.0625 3.0391,4.7773 8.0586,11.1523 2.211,2.6133 4.6797,5.3125 7.4297,8.1016 1.043,1.2812 5.7813,5.6641 14.2227,13.1406 1.2187,1.0469 2.4375,2.0781 3.668,3.0899 -1.0196,-0.1797 -2.0274,-0.3438 -3.0274,-0.5 -1.7422,-0.2657 -3.4531,-0.4961 -5.1211,-0.6875 l -2.0703,-0.2149 h -0.039 c -9.7304,-1.5586 -19.582,-3.4219 -29.582,-5.5859 -172.3984,-52.8086 -275.957,-79.211 -310.6797,-79.211 -2.7304,0 -5.039,0.1641 -6.9179,0.4922 -2.0196,-0.2929 -4.9415,-0.4375 -8.75,-0.4375 -34.7618,0 -143.91802,12.0703 -327.47661,36.211 5.28906,-9.0469 9.97656,-17.6368 14.07031,-25.7735 3.05859,-5.5742 2.80469,-8.3633 -0.75781,-8.3633 -0.39063,0 -0.81641,0.031 -1.28516,0.098 h -0.4375 l -5.19531,0.5039 c -4.9336,1.1328 -8.0625,2.0156 -9.39063,2.6484 l -7.32422,3.0235 -23.59375,11.4844 c -8.08593,4.1562 -16.23437,8.5546 -24.45312,13.1992 7.21094,-19.2578 13.35547,-38.1407 18.43359,-56.6446 6.25391,-22.0898 10.84766,-43.8046 13.78516,-65.1367 l 1.89062,-15.9258 c 1.05079,-10.5703 1.69141,-21.0468 1.91407,-31.4257 l 0.0273,-15.5039 c -0.17969,-1.8399 -0.84375,-2.8829 -1.98828,-3.129 l -0.33984,0.039 c -4.26954,2.2305 -19.61329,25.2383 -46.03516,69.0195 -9.70313,18.4766 -23.19922,44.9649 -40.5,79.461 v 0 c -0.37109,-2.0508 -0.75391,-4.2305 -1.14063,-6.5391 -0.53906,-1.5976 -1.32812,-23.4062 -2.3789,-65.4179 -0.4961,-5.9961 -1.32813,-14.4571 -2.4961,-25.3829 -0.3789,-2.1679 -1.22656,-3.2812 -2.54296,-3.3476 l -0.53516,0.059 c -0.0273,0 -0.0508,0 -0.0781,0 -1.34765,0 -4.66796,2.8515 -9.95703,8.5547 -7.3125,7.4414 -12.48437,13.2539 -15.51172,17.4414 -6.92187,11.5273 -11.67187,20.3398 -14.25,26.4336 v 0 c -0.34375,-8.1719 -0.85546,-16.3203 -1.53906,-24.4453 -0.34765,-4.1485 -0.74219,-8.2032 -1.18359,-12.1641 h -0.0352 v -364.4375 l 25.48047,0.01 v -0.012 l 80.54297,0.01 c 25.42187,-0.01 46.02734,-20.6133 46.02734,-46.0352 v -170.6211 c 0,-24.0312 -17.57422,-45.49996 -41.5039,-47.78121 -1.52344,-0.14843 -3.03125,-0.21875 -4.51953,-0.21875 H 745.5 c -25.41797,0 -46.02344,20.60938 -46.02344,46.03126 v 61.3281 c 0,36.0313 1.50781,45.9727 -34.51953,45.9727 l -25.48047,0.01 V 863.46094 c 0,-42.64063 -31.875,-78.67188 -72.92187,-78.67188 z m 0,0"
         id="path672" />
    </clipPath>
    <clipPath
       id="clip-13">
      <path
         clip-rule="nonzero"
         d="m 566.55078,784.78906 c -41.04687,0 -72.92187,36.03125 -72.92187,78.67188 v 42.86718 c -19.77735,-0.79687 -18.89063,-8 -18.89063,-30.53906 v -40.84765 c 0,-16.92188 -13.72266,-30.64063 -30.64844,-30.64063 -0.99609,0 -2,0.0391 -3.01172,0.14063 -15.9375,1.51953 -27.64062,15.82031 -27.64062,31.82812 v 113.62109 c 0,16.91797 13.72266,30.64063 30.65234,30.64844 l 49.53907,-0.008 V 1465.285 l -14.14063,-0.01 c -44.60547,0 -42.73828,-12.3007 -42.73828,-56.9062 v -75.9375 c 0,-31.4727 -25.51563,-56.9844 -56.98438,-56.9844 -1.84765,0 -3.71484,0.09 -5.59765,0.2696 -29.625,2.8242 -51.38672,29.4023 -51.38672,59.164 v 211.2344 c 0,31.4726 25.51562,56.9844 56.98437,56.9961 l 99.72266,-0.012 v 0.012 h 14.14063 v 45.9453 c -4.76172,-3.1172 -9.16407,-4.9688 -13.19922,-5.5508 l -0.45703,0.023 c -1.14454,0.1172 -1.66016,0.7188 -1.54688,1.7969 3.07813,6.4492 5.78125,12.7539 8.10938,18.9141 l 3.20312,9.1328 c 1.54688,4.7695 2.85547,9.4492 3.92578,14.0352 h -0.0312 v 22.4882 c -2.03125,-1.9375 -4.24609,-4.0429 -6.64453,-6.3125 -24.25781,-22.7226 -43.58984,-37.9922 -57.99219,-45.8125 l -0.3125,-0.02 c -0.0234,0 -0.0469,0 -0.0703,0 -1.52344,0 -2.53125,1.3438 -3.02344,4.0313 0.13672,2.0234 1.33594,5.7539 3.59766,11.1835 l 14.77734,31.9688 C 320.74219,1674.7695 172.76562,1632.3359 0.0351562,1577.6328 H 0.015625 V 2160 l 3839.624975,-0.082 v -358.7852 h -0.012 c -5.4101,0.1875 -10.0586,0.4375 -13.957,0.7422 -157.5235,25.0352 -289.3125,39.3828 -395.3906,43.0469 l -161.1211,38.8633 v -492.5274 h 51.7695 c 44.9687,0 81.5508,-36.5781 81.5508,-81.5508 v -63.7578 c 0,-12.2851 -10,-22.2539 -22.25,-22.2539 h -0.012 c -12.2774,0 -22.25,9.9688 -22.25,22.2539 v 46.1563 c 0,24.4687 -19.9102,44.3828 -44.4102,44.3867 h -44.3984 v -191.3946 c 0,-36.8007 -29.9414,-66.7109 -66.7188,-66.7109 -17.8008,0 -34.5625,6.9414 -47.1601,19.5508 -12.6016,12.582 -19.5508,29.3203 -19.5508,47.1601 V 1473.5 h -36.4024 c -24.4883,0 -44.3984,-19.918 -44.3984,-44.3867 v -46.1563 c 0,-12.2812 -9.9688,-22.2539 -22.2578,-22.2539 -12.2617,0 -22.25,9.9727 -22.25,22.2539 v 63.7578 c 0,44.9727 36.5781,81.5547 81.5469,81.5547 h 43.7617 v 314.2422 h -0.059 c -3.7813,7.3633 -8.3828,16.4414 -13.793,27.2344 v 0 c -0.168,-0.9414 -0.3476,-1.9375 -0.5195,-2.9922 -0.25,-0.7305 -0.6094,-10.6992 -1.0899,-29.9101 -0.2304,-2.7422 -0.6093,-6.6094 -1.1406,-11.6055 -0.1797,-0.9922 -0.5586,-1.5 -1.1601,-1.5313 l -0.25,0.027 c -0.01,0 -0.02,0 -0.039,0 -0.6094,0 -2.1289,1.3047 -4.5508,3.9101 -3.3398,3.4024 -5.707,6.0625 -7.0898,7.9766 -3.1602,5.2695 -5.3399,9.3008 -6.5196,12.0859 v 0 c -0.1601,-3.7382 -0.3906,-7.4648 -0.6992,-11.1796 -0.4492,-5.3047 -1.0586,-10.2735 -1.8398,-14.9063 -0.1992,-1.5117 -1.1094,-6.0312 -2.7188,-13.5586 -1.4922,-7.1133 -2.6719,-10.668 -3.5429,-10.668 -0.09,0 -0.1875,0.047 -0.2774,0.1368 l -0.1328,0.019 c -0.3398,0.09 -0.6602,0.5508 -0.9492,1.3789 -2.7891,8.6367 -4.5196,14.1797 -5.1797,16.6289 -2.0508,8.0781 -3.4805,14.5547 -4.3008,19.4297 -0.7891,4.1055 -1.2695,9.1836 -1.4492,15.2383 -0.01,0.4726 -0.02,0.9414 -0.02,1.414 -8.5586,-12.8203 -13.5313,-19.9843 -14.9219,-21.4961 -3.2695,-4.332 -6.3789,-8.1757 -9.3281,-11.539 -5.6602,-6.6758 -11.1602,-11.5078 -16.4805,-14.5 l -0.2578,0.031 c -0.6328,0.168 -0.793,1.0196 -0.5,2.5547 6.9883,23.7891 11.8281,43.6563 14.539,59.6094 0.2891,1.875 0.5274,4.1016 0.7188,6.6797 -1.8789,-2.7266 -3.7188,-5.1602 -5.5078,-7.2969 l -2.7617,-3.3555 c -1.8008,-2.1211 -3.5391,-4.0117 -5.211,-5.6718 -1.6679,-1.6602 -3.2695,-3.0899 -4.8086,-4.2852 -3.082,-2.4609 -5.8711,-3.8672 -8.3515,-4.2227 l -0.211,0.01 c -0.5195,0.055 -0.7578,0.3281 -0.707,0.8242 1.4102,2.9492 2.6484,5.832 3.707,8.6484 l 1.461,4.1758 c 0.9023,2.75 1.6211,5.4375 2.1601,8.0586 0.7422,3.5234 1.1602,6.9297 1.2696,10.2187 v 0 c -1.3282,-1.289 -2.8985,-2.7773 -4.6797,-4.4687 -11.0899,-10.3906 -19.9297,-17.3711 -26.5196,-20.9492 l -0.1406,-0.01 c -0.01,0 -0.02,0 -0.039,0 -0.6914,0 -1.1484,0.6132 -1.3789,1.8437 0.059,0.9258 0.6094,2.6289 1.6485,5.1133 l 22.8008,49.3398 c 0.1093,0.2188 0.2187,0.4375 0.3281,0.6524 -6.6875,-4.168 -10.8086,-6.586 -12.3594,-7.25 l -5.0391,-2.5625 c -3.1406,-1.5039 -9.8085,-4.4414 -20.0195,-8.8164 -2.4492,-1.1133 -7.082,-2.875 -13.8789,-5.293 -2.4023,-0.7851 -4.3516,-1.3047 -5.8516,-1.5664 l -1.8906,-0.1953 c -0.059,0 -0.1211,0 -0.1797,0 -0.5898,0 -1.0586,0.1523 -1.4101,0.4648 l 1.75,3.2383 c 0.332,1 2.8594,4.4883 7.582,10.4727 2.0586,2.4492 4.3867,4.9843 6.9688,7.6015 0.9687,1.2032 5.4179,5.3125 13.3398,12.3321 1.1406,0.9843 2.2891,1.9492 3.4492,2.8984 -0.9609,-0.168 -1.9101,-0.3242 -2.8476,-0.4688 -1.6328,-0.25 -3.2305,-0.4648 -4.8008,-0.6445 l -2.3203,-0.2422 c -3.0586,-0.2851 -5.9922,-0.4297 -8.7696,-0.4297 l -1.4921,0.016 c -5.3594,0.1797 -9.379,0.6484 -12.0586,1.3984 -2.711,0.7891 -3.1993,1.7539 -1.4493,2.8906 1.75,0.5899 6.7774,1.8672 15.0977,3.8282 l 5.1523,1.4335 c 8.3672,2.4883 17.7579,5.504 28.1797,9.043 h -0.02 c -2.5625,0.2695 -5,0.6211 -7.3203,1.0508 -1.2227,0.168 -4.3789,0.8437 -9.4805,2.0273 -3.9609,0.9844 -7.6015,2.0743 -10.8906,3.2774 -0.9102,0.3281 -1.7891,0.664 -2.6289,1.0039 h -0.062 c -3.2578,0.1367 -6.4375,0.207 -9.5391,0.207 -5.4492,0 -10.6484,-0.2148 -15.6211,-0.6406 l -197.6367,-32.9063 c -25.5117,0.336 -49.4023,0.5079 -71.6719,0.5079 -109.0703,0 -179.1679,-4.0391 -210.3086,-12.1133 -90.8007,-14.5117 -244.6093,-62.8985 -461.4218,-145.1602 -22.6094,-6.7265 -51.0703,-11.625 -85.3672,-14.7031 -10.9024,-0.9922 -23,-1.4844 -36.293,-1.4844 -24.5586,0 -53.1992,1.6914 -85.8984,5.0742 -49.5117,9.5118 -91.8516,17.4141 -127.0508,23.7071 0.832,-0.7266 1.6719,-1.4453 2.5117,-2.1524 -0.1601,-0.1718 -0.6211,-0.2656 -1.3906,-0.289 l -0.7617,0.035 c -3.3203,0.375 -7.961,1.6211 -13.9297,3.7305 -0.3281,0.1445 -0.6602,0.2851 -0.9805,0.4297 0.4102,-0.4727 0.832,-0.9571 1.2617,-1.4531 9.0977,-13.2852 16.2383,-25.0743 21.418,-35.3633 1.4922,-2.7188 1.3633,-4.0782 -0.3672,-4.0782 -0.1914,0 -0.4023,0.016 -0.6328,0.051 h -0.207 l -2.5313,0.2461 c -2.4101,0.5508 -3.9297,0.9805 -4.582,1.2891 l -3.5664,1.4726 -11.4922,5.5977 c -3.9414,2.0234 -7.9102,4.168 -11.9102,6.4297 3.5118,-9.3828 6.5,-18.5821 8.9805,-27.5977 3.0391,-10.7617 5.2813,-21.3398 6.7109,-31.7344 l 0.918,-7.7578 c 0.5117,-5.1523 0.832,-10.2539 0.9414,-15.3125 l 0.01,-7.5547 c -0.09,-0.8945 -0.4062,-1.4023 -0.9687,-1.5234 l -0.168,0.02 c -2.082,1.0899 -9.5508,12.2969 -22.4219,33.625 -3.6992,7.0469 -8.539,16.4805 -14.5,28.3047 v -191.9179 h 28.0391 25.4531 c 14.0586,0 25.4571,-11.3985 25.4571,-25.4571 v -83.0859 c 0,-14.0625 -11.3985,-25.461 -25.4571,-25.461 v 0 H 1687 c -7.0312,0 -13.3789,2.8515 -17.9883,7.457 -4.6133,4.6015 -7.4609,10.9687 -7.4609,18 v 57.625 h -28.0313 V 1422.25 c 0,-32.5625 -26.3984,-58.9609 -58.9687,-58.9609 -32.5625,0 -58.961,26.3984 -58.961,58.9609 v 144.7344 h -38.4101 v -57.6211 c -0.01,-14.0625 -11.4102,-25.4649 -25.4688,-25.4649 v 0.01 h -0.012 c -14.0586,0 -25.4492,11.3946 -25.4492,25.4571 v 83.0859 c 0,14.0586 11.3984,25.461 25.4609,25.461 h 63.8789 v 103.0664 c -5.8515,-4.8125 -10.8515,-8.3477 -15.0195,-10.6094 l -0.1484,-0.01 h -0.031 c -0.7422,0 -1.2304,0.6562 -1.4687,1.9648 0.059,0.9883 0.6484,2.8008 1.75,5.4453 l 14.9179,32.2969 v 15.082 c -1.6093,-0.9297 -2.7695,-1.5429 -3.4492,-1.8359 l -5.3711,-2.7305 c -3.3281,-1.6015 -10.4492,-4.7343 -21.3281,-9.3945 -2.6133,-1.1836 -7.543,-3.0625 -14.7812,-5.6367 -2.5704,-0.836 -4.6407,-1.3906 -6.2305,-1.6719 l -2.0195,-0.207 c -0.07,0 -0.1289,0 -0.1914,0 -0.629,0 -1.129,0.164 -1.5079,0.4922 l 1.8789,3.457 c 0.3399,1.0625 3.0391,4.7773 8.0586,11.1523 2.211,2.6133 4.6797,5.3125 7.4297,8.1016 1.043,1.2812 5.7813,5.6641 14.2227,13.1406 1.2187,1.0469 2.4375,2.0781 3.668,3.0899 -1.0196,-0.1797 -2.0274,-0.3438 -3.0274,-0.5 -1.7422,-0.2657 -3.4531,-0.4961 -5.1211,-0.6875 l -2.0703,-0.2149 h -0.039 c -9.7304,-1.5586 -19.582,-3.4219 -29.582,-5.5859 -172.3984,-52.8086 -275.957,-79.211 -310.6797,-79.211 -2.7304,0 -5.039,0.1641 -6.9179,0.4922 -2.0196,-0.2929 -4.9415,-0.4375 -8.75,-0.4375 -34.7618,0 -143.91802,12.0703 -327.47661,36.211 5.28906,-9.0469 9.97656,-17.6368 14.07031,-25.7735 3.05859,-5.5742 2.80469,-8.3633 -0.75781,-8.3633 -0.39063,0 -0.81641,0.031 -1.28516,0.098 h -0.4375 l -5.19531,0.5039 c -4.9336,1.1328 -8.0625,2.0156 -9.39063,2.6484 l -7.32422,3.0235 -23.59375,11.4844 c -8.08593,4.1562 -16.23437,8.5546 -24.45312,13.1992 7.21094,-19.2578 13.35547,-38.1407 18.43359,-56.6446 6.25391,-22.0898 10.84766,-43.8046 13.78516,-65.1367 l 1.89062,-15.9258 c 1.05079,-10.5703 1.69141,-21.0468 1.91407,-31.4257 l 0.0273,-15.5039 c -0.17969,-1.8399 -0.84375,-2.8829 -1.98828,-3.129 l -0.33984,0.039 c -4.26954,2.2305 -19.61329,25.2383 -46.03516,69.0195 -9.70313,18.4766 -23.19922,44.9649 -40.5,79.461 v 0 c -0.37109,-2.0508 -0.75391,-4.2305 -1.14063,-6.5391 -0.53906,-1.5976 -1.32812,-23.4062 -2.3789,-65.4179 -0.4961,-5.9961 -1.32813,-14.4571 -2.4961,-25.3829 -0.3789,-2.1679 -1.22656,-3.2812 -2.54296,-3.3476 l -0.53516,0.059 c -0.0273,0 -0.0508,0 -0.0781,0 -1.34765,0 -4.66796,2.8515 -9.95703,8.5547 -7.3125,7.4414 -12.48437,13.2539 -15.51172,17.4414 -6.92187,11.5273 -11.67187,20.3398 -14.25,26.4336 v 0 c -0.34375,-8.1719 -0.85546,-16.3203 -1.53906,-24.4453 -0.34765,-4.1485 -0.74219,-8.2032 -1.18359,-12.1641 h -0.0352 v -364.4375 l 25.48047,0.01 v -0.012 l 80.54297,0.01 c 25.42187,-0.01 46.02734,-20.6133 46.02734,-46.0352 v -170.6211 c 0,-24.0312 -17.57422,-45.49996 -41.5039,-47.78121 -1.52344,-0.14843 -3.03125,-0.21875 -4.51953,-0.21875 H 745.5 c -25.41797,0 -46.02344,20.60938 -46.02344,46.03126 v 61.3281 c 0,36.0313 1.50781,45.9727 -34.51953,45.9727 l -25.48047,0.01 V 863.46094 c 0,-42.64063 -31.875,-78.67188 -72.92187,-78.67188 z m 0,0"
         id="path673" />
    </clipPath>
    <radialGradient
       id="radial-pattern-4"
       gradientUnits="userSpaceOnUse"
       cx="212.18851"
       cy="533.05573"
       fx="212.18851"
       fy="533.05573"
       r="1920.8025"
       gradientTransform="matrix(2.0422449,0.00757988,-0.00200421,0.5399906,1487.5459,790.54228)">
      <stop
         offset="0"
         stop-color="rgb(66.096497%, 38.285828%, 45.336914%)"
         stop-opacity="1"
         id="stop673" />
      <stop
         offset="0.0117188"
         stop-color="rgb(65.83252%, 38.070679%, 45.109558%)"
         stop-opacity="1"
         id="stop674" />
      <stop
         offset="0.0117188"
         stop-color="rgb(65.657043%, 37.92572%, 44.958496%)"
         stop-opacity="1"
         id="stop675" />
      <stop
         offset="0.015625"
         stop-color="rgb(65.480042%, 37.782288%, 44.805908%)"
         stop-opacity="1"
         id="stop676" />
      <stop
         offset="0.0195312"
         stop-color="rgb(65.304565%, 37.638855%, 44.654846%)"
         stop-opacity="1"
         id="stop677" />
      <stop
         offset="0.0195312"
         stop-color="rgb(65.127563%, 37.493896%, 44.503784%)"
         stop-opacity="1"
         id="stop678" />
      <stop
         offset="0.0273438"
         stop-color="rgb(64.952087%, 37.350464%, 44.351196%)"
         stop-opacity="1"
         id="stop679" />
      <stop
         offset="0.03125"
         stop-color="rgb(64.776611%, 37.207031%, 44.200134%)"
         stop-opacity="1"
         id="stop680" />
      <stop
         offset="0.0351562"
         stop-color="rgb(64.599609%, 37.062073%, 44.047546%)"
         stop-opacity="1"
         id="stop681" />
      <stop
         offset="0.0390625"
         stop-color="rgb(64.424133%, 36.91864%, 43.896484%)"
         stop-opacity="1"
         id="stop682" />
      <stop
         offset="0.0429688"
         stop-color="rgb(64.247131%, 36.773682%, 43.745422%)"
         stop-opacity="1"
         id="stop683" />
      <stop
         offset="0.046875"
         stop-color="rgb(64.071655%, 36.630249%, 43.592834%)"
         stop-opacity="1"
         id="stop684" />
      <stop
         offset="0.0507812"
         stop-color="rgb(63.894653%, 36.486816%, 43.441772%)"
         stop-opacity="1"
         id="stop685" />
      <stop
         offset="0.0546875"
         stop-color="rgb(63.719177%, 36.341858%, 43.29071%)"
         stop-opacity="1"
         id="stop686" />
      <stop
         offset="0.0585938"
         stop-color="rgb(63.542175%, 36.198425%, 43.138123%)"
         stop-opacity="1"
         id="stop687" />
      <stop
         offset="0.0625"
         stop-color="rgb(63.366699%, 36.054993%, 42.987061%)"
         stop-opacity="1"
         id="stop688" />
      <stop
         offset="0.0664062"
         stop-color="rgb(63.189697%, 35.910034%, 42.834473%)"
         stop-opacity="1"
         id="stop689" />
      <stop
         offset="0.0703125"
         stop-color="rgb(63.014221%, 35.766602%, 42.683411%)"
         stop-opacity="1"
         id="stop690" />
      <stop
         offset="0.0742188"
         stop-color="rgb(62.838745%, 35.623169%, 42.532349%)"
         stop-opacity="1"
         id="stop691" />
      <stop
         offset="0.078125"
         stop-color="rgb(62.661743%, 35.47821%, 42.379761%)"
         stop-opacity="1"
         id="stop692" />
      <stop
         offset="0.0820312"
         stop-color="rgb(62.486267%, 35.334778%, 42.228699%)"
         stop-opacity="1"
         id="stop693" />
      <stop
         offset="0.0859375"
         stop-color="rgb(62.309265%, 35.189819%, 42.076111%)"
         stop-opacity="1"
         id="stop694" />
      <stop
         offset="0.0898438"
         stop-color="rgb(62.133789%, 35.046387%, 41.925049%)"
         stop-opacity="1"
         id="stop695" />
      <stop
         offset="0.09375"
         stop-color="rgb(61.956787%, 34.902954%, 41.773987%)"
         stop-opacity="1"
         id="stop696" />
      <stop
         offset="0.0976562"
         stop-color="rgb(61.781311%, 34.757996%, 41.621399%)"
         stop-opacity="1"
         id="stop697" />
      <stop
         offset="0.101562"
         stop-color="rgb(61.604309%, 34.614563%, 41.470337%)"
         stop-opacity="1"
         id="stop698" />
      <stop
         offset="0.105469"
         stop-color="rgb(61.428833%, 34.47113%, 41.317749%)"
         stop-opacity="1"
         id="stop699" />
      <stop
         offset="0.109375"
         stop-color="rgb(61.253357%, 34.326172%, 41.166687%)"
         stop-opacity="1"
         id="stop700" />
      <stop
         offset="0.113281"
         stop-color="rgb(61.076355%, 34.182739%, 41.015625%)"
         stop-opacity="1"
         id="stop701" />
      <stop
         offset="0.117188"
         stop-color="rgb(60.900879%, 34.037781%, 40.863037%)"
         stop-opacity="1"
         id="stop702" />
      <stop
         offset="0.121094"
         stop-color="rgb(60.723877%, 33.894348%, 40.711975%)"
         stop-opacity="1"
         id="stop703" />
      <stop
         offset="0.125"
         stop-color="rgb(60.548401%, 33.750916%, 40.560913%)"
         stop-opacity="1"
         id="stop704" />
      <stop
         offset="0.128906"
         stop-color="rgb(60.371399%, 33.605957%, 40.408325%)"
         stop-opacity="1"
         id="stop705" />
      <stop
         offset="0.132812"
         stop-color="rgb(60.195923%, 33.462524%, 40.257263%)"
         stop-opacity="1"
         id="stop706" />
      <stop
         offset="0.136719"
         stop-color="rgb(60.018921%, 33.319092%, 40.104675%)"
         stop-opacity="1"
         id="stop707" />
      <stop
         offset="0.140625"
         stop-color="rgb(59.843445%, 33.174133%, 39.953613%)"
         stop-opacity="1"
         id="stop708" />
      <stop
         offset="0.144531"
         stop-color="rgb(59.666443%, 33.030701%, 39.802551%)"
         stop-opacity="1"
         id="stop709" />
      <stop
         offset="0.148438"
         stop-color="rgb(59.490967%, 32.887268%, 39.649963%)"
         stop-opacity="1"
         id="stop710" />
      <stop
         offset="0.152344"
         stop-color="rgb(59.315491%, 32.74231%, 39.498901%)"
         stop-opacity="1"
         id="stop711" />
      <stop
         offset="0.15625"
         stop-color="rgb(59.138489%, 32.598877%, 39.346313%)"
         stop-opacity="1"
         id="stop712" />
      <stop
         offset="0.160156"
         stop-color="rgb(58.963013%, 32.453918%, 39.195251%)"
         stop-opacity="1"
         id="stop713" />
      <stop
         offset="0.164062"
         stop-color="rgb(58.786011%, 32.310486%, 39.044189%)"
         stop-opacity="1"
         id="stop714" />
      <stop
         offset="0.167969"
         stop-color="rgb(58.610535%, 32.167053%, 38.891602%)"
         stop-opacity="1"
         id="stop715" />
      <stop
         offset="0.171875"
         stop-color="rgb(58.433533%, 32.022095%, 38.74054%)"
         stop-opacity="1"
         id="stop716" />
      <stop
         offset="0.175781"
         stop-color="rgb(58.258057%, 31.878662%, 38.587952%)"
         stop-opacity="1"
         id="stop717" />
      <stop
         offset="0.179688"
         stop-color="rgb(58.081055%, 31.735229%, 38.43689%)"
         stop-opacity="1"
         id="stop718" />
      <stop
         offset="0.183594"
         stop-color="rgb(57.905579%, 31.590271%, 38.285828%)"
         stop-opacity="1"
         id="stop719" />
      <stop
         offset="0.1875"
         stop-color="rgb(57.730103%, 31.446838%, 38.13324%)"
         stop-opacity="1"
         id="stop720" />
      <stop
         offset="0.191406"
         stop-color="rgb(57.553101%, 31.30188%, 37.982178%)"
         stop-opacity="1"
         id="stop721" />
      <stop
         offset="0.195312"
         stop-color="rgb(57.377625%, 31.158447%, 37.831116%)"
         stop-opacity="1"
         id="stop722" />
      <stop
         offset="0.199219"
         stop-color="rgb(57.200623%, 31.015015%, 37.678528%)"
         stop-opacity="1"
         id="stop723" />
      <stop
         offset="0.203125"
         stop-color="rgb(57.025146%, 30.870056%, 37.527466%)"
         stop-opacity="1"
         id="stop724" />
      <stop
         offset="0.207031"
         stop-color="rgb(56.848145%, 30.726624%, 37.374878%)"
         stop-opacity="1"
         id="stop725" />
      <stop
         offset="0.210938"
         stop-color="rgb(56.672668%, 30.583191%, 37.223816%)"
         stop-opacity="1"
         id="stop726" />
      <stop
         offset="0.214844"
         stop-color="rgb(56.495667%, 30.438232%, 37.072754%)"
         stop-opacity="1"
         id="stop727" />
      <stop
         offset="0.21875"
         stop-color="rgb(56.32019%, 30.2948%, 36.920166%)"
         stop-opacity="1"
         id="stop728" />
      <stop
         offset="0.222656"
         stop-color="rgb(56.143188%, 30.151367%, 36.769104%)"
         stop-opacity="1"
         id="stop729" />
      <stop
         offset="0.226562"
         stop-color="rgb(55.967712%, 30.006409%, 36.616516%)"
         stop-opacity="1"
         id="stop730" />
      <stop
         offset="0.230469"
         stop-color="rgb(55.792236%, 29.862976%, 36.465454%)"
         stop-opacity="1"
         id="stop731" />
      <stop
         offset="0.234375"
         stop-color="rgb(55.615234%, 29.718018%, 36.314392%)"
         stop-opacity="1"
         id="stop732" />
      <stop
         offset="0.238281"
         stop-color="rgb(55.439758%, 29.574585%, 36.161804%)"
         stop-opacity="1"
         id="stop733" />
      <stop
         offset="0.242188"
         stop-color="rgb(55.262756%, 29.431152%, 36.010742%)"
         stop-opacity="1"
         id="stop734" />
      <stop
         offset="0.246094"
         stop-color="rgb(55.08728%, 29.286194%, 35.858154%)"
         stop-opacity="1"
         id="stop735" />
      <stop
         offset="0.25"
         stop-color="rgb(54.910278%, 29.142761%, 35.707092%)"
         stop-opacity="1"
         id="stop736" />
      <stop
         offset="0.253906"
         stop-color="rgb(54.646301%, 28.926086%, 35.479736%)"
         stop-opacity="1"
         id="stop737" />
      <stop
         offset="0.261719"
         stop-color="rgb(54.293823%, 28.637695%, 35.176086%)"
         stop-opacity="1"
         id="stop738" />
      <stop
         offset="0.269531"
         stop-color="rgb(53.941345%, 28.35083%, 34.872437%)"
         stop-opacity="1"
         id="stop739" />
      <stop
         offset="0.277344"
         stop-color="rgb(53.588867%, 28.062439%, 34.570312%)"
         stop-opacity="1"
         id="stop740" />
      <stop
         offset="0.285156"
         stop-color="rgb(53.236389%, 27.774048%, 34.266663%)"
         stop-opacity="1"
         id="stop741" />
      <stop
         offset="0.292969"
         stop-color="rgb(52.883911%, 27.487183%, 33.963013%)"
         stop-opacity="1"
         id="stop742" />
      <stop
         offset="0.300781"
         stop-color="rgb(52.532959%, 27.198792%, 33.659363%)"
         stop-opacity="1"
         id="stop743" />
      <stop
         offset="0.308594"
         stop-color="rgb(52.180481%, 26.9104%, 33.357239%)"
         stop-opacity="1"
         id="stop744" />
      <stop
         offset="0.316406"
         stop-color="rgb(51.828003%, 26.622009%, 33.053589%)"
         stop-opacity="1"
         id="stop745" />
      <stop
         offset="0.324219"
         stop-color="rgb(51.475525%, 26.335144%, 32.749939%)"
         stop-opacity="1"
         id="stop746" />
      <stop
         offset="0.332031"
         stop-color="rgb(51.123047%, 26.046753%, 32.446289%)"
         stop-opacity="1"
         id="stop747" />
      <stop
         offset="0.339844"
         stop-color="rgb(50.770569%, 25.758362%, 32.142639%)"
         stop-opacity="1"
         id="stop748" />
      <stop
         offset="0.347656"
         stop-color="rgb(50.418091%, 25.469971%, 31.840515%)"
         stop-opacity="1"
         id="stop749" />
      <stop
         offset="0.355469"
         stop-color="rgb(50.065613%, 25.183105%, 31.536865%)"
         stop-opacity="1"
         id="stop750" />
      <stop
         offset="0.363281"
         stop-color="rgb(49.713135%, 24.894714%, 31.233215%)"
         stop-opacity="1"
         id="stop751" />
      <stop
         offset="0.371094"
         stop-color="rgb(49.360657%, 24.606323%, 30.929565%)"
         stop-opacity="1"
         id="stop752" />
      <stop
         offset="0.378906"
         stop-color="rgb(49.009705%, 24.317932%, 30.627441%)"
         stop-opacity="1"
         id="stop753" />
      <stop
         offset="0.386719"
         stop-color="rgb(48.657227%, 24.031067%, 30.323792%)"
         stop-opacity="1"
         id="stop754" />
      <stop
         offset="0.394531"
         stop-color="rgb(48.304749%, 23.742676%, 30.020142%)"
         stop-opacity="1"
         id="stop755" />
      <stop
         offset="0.402344"
         stop-color="rgb(47.952271%, 23.454285%, 29.716492%)"
         stop-opacity="1"
         id="stop756" />
      <stop
         offset="0.410156"
         stop-color="rgb(47.599792%, 23.165894%, 29.412842%)"
         stop-opacity="1"
         id="stop757" />
      <stop
         offset="0.417969"
         stop-color="rgb(47.247314%, 22.879028%, 29.110718%)"
         stop-opacity="1"
         id="stop758" />
      <stop
         offset="0.425781"
         stop-color="rgb(46.894836%, 22.590637%, 28.807068%)"
         stop-opacity="1"
         id="stop759" />
      <stop
         offset="0.433594"
         stop-color="rgb(46.542358%, 22.302246%, 28.503418%)"
         stop-opacity="1"
         id="stop760" />
      <stop
         offset="0.441406"
         stop-color="rgb(46.18988%, 22.015381%, 28.199768%)"
         stop-opacity="1"
         id="stop761" />
      <stop
         offset="0.449219"
         stop-color="rgb(45.837402%, 21.72699%, 27.897644%)"
         stop-opacity="1"
         id="stop762" />
      <stop
         offset="0.457031"
         stop-color="rgb(45.48645%, 21.438599%, 27.593994%)"
         stop-opacity="1"
         id="stop763" />
      <stop
         offset="0.464844"
         stop-color="rgb(45.133972%, 21.150208%, 27.290344%)"
         stop-opacity="1"
         id="stop764" />
      <stop
         offset="0.472656"
         stop-color="rgb(44.781494%, 20.863342%, 26.986694%)"
         stop-opacity="1"
         id="stop765" />
      <stop
         offset="0.480469"
         stop-color="rgb(44.429016%, 20.574951%, 26.683044%)"
         stop-opacity="1"
         id="stop766" />
      <stop
         offset="0.488281"
         stop-color="rgb(44.076538%, 20.28656%, 26.38092%)"
         stop-opacity="1"
         id="stop767" />
      <stop
         offset="0.496094"
         stop-color="rgb(43.72406%, 19.998169%, 26.077271%)"
         stop-opacity="1"
         id="stop768" />
      <stop
         offset="0.503906"
         stop-color="rgb(43.460083%, 19.78302%, 25.849915%)"
         stop-opacity="1"
         id="stop769" />
      <stop
         offset="0.507812"
         stop-color="rgb(43.284607%, 19.639587%, 25.697327%)"
         stop-opacity="1"
         id="stop770" />
      <stop
         offset="0.511719"
         stop-color="rgb(43.107605%, 19.494629%, 25.546265%)"
         stop-opacity="1"
         id="stop771" />
      <stop
         offset="0.515625"
         stop-color="rgb(42.932129%, 19.351196%, 25.395203%)"
         stop-opacity="1"
         id="stop772" />
      <stop
         offset="0.519531"
         stop-color="rgb(42.755127%, 19.206238%, 25.242615%)"
         stop-opacity="1"
         id="stop773" />
      <stop
         offset="0.523438"
         stop-color="rgb(42.579651%, 19.062805%, 25.091553%)"
         stop-opacity="1"
         id="stop774" />
      <stop
         offset="0.527344"
         stop-color="rgb(42.402649%, 18.919373%, 24.940491%)"
         stop-opacity="1"
         id="stop775" />
      <stop
         offset="0.53125"
         stop-color="rgb(42.227173%, 18.774414%, 24.787903%)"
         stop-opacity="1"
         id="stop776" />
      <stop
         offset="0.535156"
         stop-color="rgb(42.050171%, 18.630981%, 24.636841%)"
         stop-opacity="1"
         id="stop777" />
      <stop
         offset="0.539062"
         stop-color="rgb(41.874695%, 18.487549%, 24.484253%)"
         stop-opacity="1"
         id="stop778" />
      <stop
         offset="0.542969"
         stop-color="rgb(41.697693%, 18.34259%, 24.333191%)"
         stop-opacity="1"
         id="stop779" />
      <stop
         offset="0.546875"
         stop-color="rgb(41.522217%, 18.199158%, 24.182129%)"
         stop-opacity="1"
         id="stop780" />
      <stop
         offset="0.550781"
         stop-color="rgb(41.346741%, 18.055725%, 24.029541%)"
         stop-opacity="1"
         id="stop781" />
      <stop
         offset="0.554688"
         stop-color="rgb(41.169739%, 17.910767%, 23.878479%)"
         stop-opacity="1"
         id="stop782" />
      <stop
         offset="0.558594"
         stop-color="rgb(40.994263%, 17.767334%, 23.725891%)"
         stop-opacity="1"
         id="stop783" />
      <stop
         offset="0.5625"
         stop-color="rgb(40.817261%, 17.622375%, 23.574829%)"
         stop-opacity="1"
         id="stop784" />
      <stop
         offset="0.566406"
         stop-color="rgb(40.641785%, 17.478943%, 23.423767%)"
         stop-opacity="1"
         id="stop785" />
      <stop
         offset="0.570312"
         stop-color="rgb(40.464783%, 17.33551%, 23.271179%)"
         stop-opacity="1"
         id="stop786" />
      <stop
         offset="0.574219"
         stop-color="rgb(40.289307%, 17.190552%, 23.120117%)"
         stop-opacity="1"
         id="stop787" />
      <stop
         offset="0.578125"
         stop-color="rgb(40.112305%, 17.047119%, 22.967529%)"
         stop-opacity="1"
         id="stop788" />
      <stop
         offset="0.582031"
         stop-color="rgb(39.936829%, 16.903687%, 22.816467%)"
         stop-opacity="1"
         id="stop789" />
      <stop
         offset="0.585938"
         stop-color="rgb(39.761353%, 16.758728%, 22.665405%)"
         stop-opacity="1"
         id="stop790" />
      <stop
         offset="0.589844"
         stop-color="rgb(39.584351%, 16.615295%, 22.512817%)"
         stop-opacity="1"
         id="stop791" />
      <stop
         offset="0.59375"
         stop-color="rgb(39.408875%, 16.470337%, 22.361755%)"
         stop-opacity="1"
         id="stop792" />
      <stop
         offset="0.597656"
         stop-color="rgb(39.231873%, 16.326904%, 22.210693%)"
         stop-opacity="1"
         id="stop793" />
      <stop
         offset="0.601562"
         stop-color="rgb(39.056396%, 16.183472%, 22.058105%)"
         stop-opacity="1"
         id="stop794" />
      <stop
         offset="0.605469"
         stop-color="rgb(38.879395%, 16.038513%, 21.907043%)"
         stop-opacity="1"
         id="stop795" />
      <stop
         offset="0.609375"
         stop-color="rgb(38.703918%, 15.895081%, 21.754456%)"
         stop-opacity="1"
         id="stop796" />
      <stop
         offset="0.613281"
         stop-color="rgb(38.526917%, 15.751648%, 21.603394%)"
         stop-opacity="1"
         id="stop797" />
      <stop
         offset="0.617188"
         stop-color="rgb(38.35144%, 15.606689%, 21.452332%)"
         stop-opacity="1"
         id="stop798" />
      <stop
         offset="0.621094"
         stop-color="rgb(38.174438%, 15.463257%, 21.299744%)"
         stop-opacity="1"
         id="stop799" />
      <stop
         offset="0.625"
         stop-color="rgb(37.998962%, 15.319824%, 21.148682%)"
         stop-opacity="1"
         id="stop800" />
      <stop
         offset="0.628906"
         stop-color="rgb(37.734985%, 15.103149%, 20.921326%)"
         stop-opacity="1"
         id="stop801" />
      <stop
         offset="0.636719"
         stop-color="rgb(37.382507%, 14.814758%, 20.617676%)"
         stop-opacity="1"
         id="stop802" />
      <stop
         offset="0.644531"
         stop-color="rgb(37.030029%, 14.526367%, 20.314026%)"
         stop-opacity="1"
         id="stop803" />
      <stop
         offset="0.652344"
         stop-color="rgb(36.677551%, 14.239502%, 20.010376%)"
         stop-opacity="1"
         id="stop804" />
      <stop
         offset="0.660156"
         stop-color="rgb(36.325073%, 13.951111%, 19.708252%)"
         stop-opacity="1"
         id="stop805" />
      <stop
         offset="0.667969"
         stop-color="rgb(35.972595%, 13.66272%, 19.404602%)"
         stop-opacity="1"
         id="stop806" />
      <stop
         offset="0.675781"
         stop-color="rgb(35.620117%, 13.374329%, 19.100952%)"
         stop-opacity="1"
         id="stop807" />
      <stop
         offset="0.683594"
         stop-color="rgb(35.267639%, 13.087463%, 18.797302%)"
         stop-opacity="1"
         id="stop808" />
      <stop
         offset="0.691406"
         stop-color="rgb(34.915161%, 12.799072%, 18.493652%)"
         stop-opacity="1"
         id="stop809" />
      <stop
         offset="0.699219"
         stop-color="rgb(34.564209%, 12.510681%, 18.191528%)"
         stop-opacity="1"
         id="stop810" />
      <stop
         offset="0.707031"
         stop-color="rgb(34.211731%, 12.22229%, 17.887878%)"
         stop-opacity="1"
         id="stop811" />
      <stop
         offset="0.714844"
         stop-color="rgb(33.859253%, 11.935425%, 17.584229%)"
         stop-opacity="1"
         id="stop812" />
      <stop
         offset="0.722656"
         stop-color="rgb(33.506775%, 11.647034%, 17.280579%)"
         stop-opacity="1"
         id="stop813" />
      <stop
         offset="0.730469"
         stop-color="rgb(33.154297%, 11.358643%, 16.978455%)"
         stop-opacity="1"
         id="stop814" />
      <stop
         offset="0.738281"
         stop-color="rgb(32.801819%, 11.070251%, 16.674805%)"
         stop-opacity="1"
         id="stop815" />
      <stop
         offset="0.746094"
         stop-color="rgb(32.449341%, 10.783386%, 16.371155%)"
         stop-opacity="1"
         id="stop816" />
      <stop
         offset="0.753906"
         stop-color="rgb(32.185364%, 10.566711%, 16.143799%)"
         stop-opacity="1"
         id="stop817" />
      <stop
         offset="0.757812"
         stop-color="rgb(32.009888%, 10.423279%, 15.992737%)"
         stop-opacity="1"
         id="stop818" />
      <stop
         offset="0.761719"
         stop-color="rgb(31.832886%, 10.279846%, 15.840149%)"
         stop-opacity="1"
         id="stop819" />
      <stop
         offset="0.765625"
         stop-color="rgb(31.65741%, 10.134888%, 15.689087%)"
         stop-opacity="1"
         id="stop820" />
      <stop
         offset="0.769531"
         stop-color="rgb(31.480408%, 9.991455%, 15.536499%)"
         stop-opacity="1"
         id="stop821" />
      <stop
         offset="0.773438"
         stop-color="rgb(31.304932%, 9.848022%, 15.385437%)"
         stop-opacity="1"
         id="stop822" />
      <stop
         offset="0.777344"
         stop-color="rgb(31.12793%, 9.703064%, 15.234375%)"
         stop-opacity="1"
         id="stop823" />
      <stop
         offset="0.78125"
         stop-color="rgb(30.952454%, 9.559631%, 15.081787%)"
         stop-opacity="1"
         id="stop824" />
      <stop
         offset="0.785156"
         stop-color="rgb(30.776978%, 9.414673%, 14.930725%)"
         stop-opacity="1"
         id="stop825" />
      <stop
         offset="0.789062"
         stop-color="rgb(30.599976%, 9.27124%, 14.779663%)"
         stop-opacity="1"
         id="stop826" />
      <stop
         offset="0.792969"
         stop-color="rgb(30.4245%, 9.127808%, 14.627075%)"
         stop-opacity="1"
         id="stop827" />
      <stop
         offset="0.796875"
         stop-color="rgb(30.247498%, 8.982849%, 14.476013%)"
         stop-opacity="1"
         id="stop828" />
      <stop
         offset="0.800781"
         stop-color="rgb(30.072021%, 8.839417%, 14.323425%)"
         stop-opacity="1"
         id="stop829" />
      <stop
         offset="0.804688"
         stop-color="rgb(29.89502%, 8.695984%, 14.172363%)"
         stop-opacity="1"
         id="stop830" />
      <stop
         offset="0.808594"
         stop-color="rgb(29.719543%, 8.551025%, 14.021301%)"
         stop-opacity="1"
         id="stop831" />
      <stop
         offset="0.8125"
         stop-color="rgb(29.542542%, 8.407593%, 13.868713%)"
         stop-opacity="1"
         id="stop832" />
      <stop
         offset="0.816406"
         stop-color="rgb(29.278564%, 8.190918%, 13.641357%)"
         stop-opacity="1"
         id="stop833" />
      <stop
         offset="0.824219"
         stop-color="rgb(28.926086%, 7.902527%, 13.337708%)"
         stop-opacity="1"
         id="stop834" />
      <stop
         offset="0.832031"
         stop-color="rgb(28.573608%, 7.615662%, 13.034058%)"
         stop-opacity="1"
         id="stop835" />
      <stop
         offset="0.839844"
         stop-color="rgb(28.22113%, 7.327271%, 12.731934%)"
         stop-opacity="1"
         id="stop836" />
      <stop
         offset="0.847656"
         stop-color="rgb(27.868652%, 7.038879%, 12.428284%)"
         stop-opacity="1"
         id="stop837" />
      <stop
         offset="0.855469"
         stop-color="rgb(27.5177%, 6.750488%, 12.124634%)"
         stop-opacity="1"
         id="stop838" />
      <stop
         offset="0.863281"
         stop-color="rgb(27.165222%, 6.463623%, 11.820984%)"
         stop-opacity="1"
         id="stop839" />
      <stop
         offset="0.871094"
         stop-color="rgb(26.812744%, 6.175232%, 11.51886%)"
         stop-opacity="1"
         id="stop840" />
      <stop
         offset="0.878906"
         stop-color="rgb(26.548767%, 5.960083%, 11.291504%)"
         stop-opacity="1"
         id="stop841" />
      <stop
         offset="0.882812"
         stop-color="rgb(26.371765%, 5.815125%, 11.138916%)"
         stop-opacity="1"
         id="stop842" />
      <stop
         offset="0.886719"
         stop-color="rgb(26.196289%, 5.671692%, 10.987854%)"
         stop-opacity="1"
         id="stop843" />
      <stop
         offset="0.890625"
         stop-color="rgb(26.019287%, 5.526733%, 10.835266%)"
         stop-opacity="1"
         id="stop844" />
      <stop
         offset="0.894531"
         stop-color="rgb(25.843811%, 5.383301%, 10.684204%)"
         stop-opacity="1"
         id="stop845" />
      <stop
         offset="0.898438"
         stop-color="rgb(25.666809%, 5.239868%, 10.533142%)"
         stop-opacity="1"
         id="stop846" />
      <stop
         offset="0.902344"
         stop-color="rgb(25.491333%, 5.09491%, 10.380554%)"
         stop-opacity="1"
         id="stop847" />
      <stop
         offset="0.90625"
         stop-color="rgb(25.315857%, 4.951477%, 10.229492%)"
         stop-opacity="1"
         id="stop848" />
      <stop
         offset="0.910156"
         stop-color="rgb(25.050354%, 4.734802%, 10.002136%)"
         stop-opacity="1"
         id="stop849" />
      <stop
         offset="0.917969"
         stop-color="rgb(24.697876%, 4.447937%, 9.698486%)"
         stop-opacity="1"
         id="stop850" />
      <stop
         offset="0.925781"
         stop-color="rgb(24.345398%, 4.159546%, 9.394836%)"
         stop-opacity="1"
         id="stop851" />
      <stop
         offset="0.933594"
         stop-color="rgb(23.99292%, 3.871155%, 9.091187%)"
         stop-opacity="1"
         id="stop852" />
      <stop
         offset="0.941406"
         stop-color="rgb(23.728943%, 3.656006%, 8.863831%)"
         stop-opacity="1"
         id="stop853" />
      <stop
         offset="0.945312"
         stop-color="rgb(23.553467%, 3.511047%, 8.712769%)"
         stop-opacity="1"
         id="stop854" />
      <stop
         offset="0.949219"
         stop-color="rgb(23.377991%, 3.367615%, 8.561707%)"
         stop-opacity="1"
         id="stop855" />
      <stop
         offset="0.953125"
         stop-color="rgb(23.200989%, 3.224182%, 8.409119%)"
         stop-opacity="1"
         id="stop856" />
      <stop
         offset="0.957031"
         stop-color="rgb(22.937012%, 3.007507%, 8.181763%)"
         stop-opacity="1"
         id="stop857" />
      <stop
         offset="0.964844"
         stop-color="rgb(22.584534%, 2.719116%, 7.878113%)"
         stop-opacity="1"
         id="stop858" />
      <stop
         offset="0.972656"
         stop-color="rgb(22.320557%, 2.503967%, 7.650757%)"
         stop-opacity="1"
         id="stop859" />
      <stop
         offset="0.976562"
         stop-color="rgb(22.143555%, 2.359009%, 7.499695%)"
         stop-opacity="1"
         id="stop860" />
      <stop
         offset="0.980469"
         stop-color="rgb(21.879578%, 2.14386%, 7.272339%)"
         stop-opacity="1"
         id="stop861" />
      <stop
         offset="0.988281"
         stop-color="rgb(21.615601%, 1.927185%, 7.044983%)"
         stop-opacity="1"
         id="stop862" />
      <stop
         offset="0.992188"
         stop-color="rgb(21.351624%, 1.712036%, 6.817627%)"
         stop-opacity="1"
         id="stop863" />
      <stop
         offset="1"
         stop-color="rgb(21.176147%, 1.568604%, 6.666565%)"
         stop-opacity="1"
         id="stop864" />
    </radialGradient>
  </defs>
  <g
     clip-path="url(#clip-11)"
     id="g877">
    <g
       clip-path="url(#clip-12)"
       id="g876">
      <g
         clip-path="url(#clip-13)"
         id="g875">
        <path
           id="path874"
           style="fill:url(#radial-pattern-4)"
           d="m 410.94727,784.78711 -410.931645,0.002 V 2160 H 3839.6406 V 784.78906 H 602.61719 c 4.70622,3.76697 8.83879,8.32684 12.74219,13.07813 5.70078,7.08719 10.82548,14.5856 15.56835,22.33008 8.59849,0.0941 17.04493,0.37671 24.94336,0.99218 19.669,1.53268 54.22586,4.33657 41.42383,36.39844 -2.96609,7.4284 -12.0075,10.56883 -18.01172,15.85352 -10.46727,4.76605 -21.14983,8.95231 -31.97461,12.74023 0.15212,4.97518 0.24757,9.95296 0.35547,14.92383 0.26969,14.50735 0.36022,29.01789 0.41992,43.52734 0.0512,14.60994 0.0594,29.22007 0.0664,43.83008 0.007,16.31541 0.009,32.62981 0.01,48.94531 1.50929,-3.0028 2.99031,-6.0197 4.64648,-8.9434 12.08354,-21.3311 28.46253,-39.7551 48.27734,-54.19918 10.87835,-6.55687 19.81003,-13.212 32.69727,-15.67968 6.78827,-1.29984 13.00036,-2.02775 18.91797,-1.77735 9.86268,0.41734 18.90321,3.55414 28.41016,11.29688 14.28012,11.6302 14.27515,21.68361 17.9121,37.37113 1.11176,31.1191 0.46033,62.251 0.0957,93.3808 -0.24499,14.8339 0.095,29.9256 -1.11914,44.7246 -0.28289,3.4481 1.34022,8.7675 0.59961,11.9473 0.69945,2.3749 1.405,4.8088 2.17773,7.3164 3.43059,18.8194 7.98657,39.2407 2.74219,58.2676 -4.03325,14.6329 -6.56009,15.5563 -15.60352,27.1015 -5.17327,3.2346 -9.98625,7.1409 -15.46289,9.8106 2.0069,34.3202 4.26275,68.6252 6.92383,102.9023 2.98995,40.4322 6.309,80.8442 10.63477,121.1582 2.4037,21.3609 5.16857,42.7185 9.89453,63.711 1.37411,5.9377 2.80033,11.8695 4.49023,17.7246 7.64442,0.773 15.49552,2.0251 20.89258,4.5762 14.69828,6.9475 21.66372,14.3324 24.66601,31.5507 1.00527,5.7652 -1.75904,11.5719 -2.63867,17.3575 -1.80535,3.2271 -3.38228,6.5914 -5.41601,9.6796 -2.41665,3.6697 -5.34181,6.9451 -8.59766,9.8946 0.14185,0.1044 0.28412,0.2097 0.42578,0.3144 11.94101,10.7687 27.7776,20.9733 23.06446,42.1192 -3.81676,17.1242 -12.26928,24.8754 -22.83204,28.3379 0.40553,-0.016 0.8111,-0.03 1.2168,-0.041 2.18836,-0.058 4.37738,-0.044 6.56641,-0.043 11.34454,0 11.3445,11.43 0,11.459 -2.08336,0.01 -4.16738,-0.024 -6.25,0.037 -0.6483,0.019 -1.29555,0.044 -1.94336,0.074 -1.54829,1.1778 -3.96503,1.8912 -7.18555,1.6387 -1.21299,-0.095 -2.43025,-0.2469 -3.64844,-0.2129 -1.80945,0.3152 -3.61092,0.7416 -5.40234,1.1621 -2.7244,0.6278 -5.44555,1.2765 -8.17188,1.8965 4.88929,2.5784 3.67897,9.4416 -4.89843,10.5156 -1.09789,0.1375 -2.197,0.2774 -3.28907,0.457 -1.75201,0.2941 -3.46038,0.7341 -5.20312,1.0723 -1.51271,0.2655 -3.03763,0.4985 -4.56836,0.6269 -1.76637,0.1496 -3.5317,0.2592 -5.30469,0.2871 -1.86373,0.085 -3.72487,0.2105 -5.58203,0.3907 -2.22961,0.1692 -4.4666,0.2484 -6.69336,0.4609 -2.41158,0.1997 -4.82691,0.3508 -7.23047,0.6367 -2.24408,0.2341 -4.4952,0.3875 -6.74414,0.5664 -2.0935,0.2137 -4.16245,0.594 -6.2539,0.8243 -2.31646,0.2519 -4.6396,0.4588 -6.96875,0.5468 -2.37004,0.1153 -4.73881,0.1192 -7.11133,0.1016 -2.29867,0 -4.59784,0 -6.89649,-0.018 -1.9423,-0.012 -3.88511,-0.023 -5.82617,-0.1 -1.82821,-0.086 -3.6529,-0.232 -5.4707,-0.4473 -2.66508,-0.3015 -5.32648,-0.6406 -8.00586,-0.791 -2.47024,-0.093 -4.94494,-0.033 -7.41602,-0.1035 -2.21657,-0.054 -4.43199,-0.1348 -6.64453,-0.2832 -2.60495,-0.1642 -5.20965,-0.2802 -7.81836,-0.3672 -2.59381,-0.1466 -5.18137,-0.3679 -7.76367,-0.6543 -2.57252,-0.182 -5.14798,-0.2477 -7.72461,-0.3535 -2.69668,-0.103 -5.39325,-0.1089 -8.09179,-0.094 h -6.43165 c -1.56883,-10e-4 -3.13625,9e-4 -4.70507,-0.012 -2.24118,-0.011 -4.48369,-0.026 -6.72461,-0.064 -3.05611,-0.054 -6.11321,-0.1156 -9.16406,-0.3145 -2.66491,-0.1862 -5.31979,-0.4722 -7.98438,-0.6562 -2.49522,-0.08 -4.9903,-0.1908 -7.48242,-0.3399 -2.38324,-0.1097 -4.77278,-0.09 -7.15235,-0.2851 -2.78778,-0.2296 -5.56192,-0.5873 -8.31445,-1.0899 -3.48203,-0.6087 -6.95096,-1.3217 -10.47266,-1.666 -3.69704,-0.3866 -7.39547,-0.7974 -11.07226,-1.3457 -2.22082,-0.3733 -4.43494,-0.7623 -6.67969,-0.9707 -3.33581,-0.47 -6.65589,-1.0398 -9.98242,-1.5703 -3.02937,-0.4813 -6.04974,-1.0086 -9.07227,-1.5293 -2.77807,-0.4508 -5.58255,-0.7266 -8.38086,-1.0195 -2.66656,-0.2567 -5.3381,-0.4572 -8,-0.7637 -2.17826,-0.2284 -4.36053,-0.4259 -6.52929,-0.7363 -2.57468,-0.2854 -5.14086,-0.6364 -7.69531,-1.0684 -2.16094,-0.286 -4.34333,-0.4342 -6.48047,-0.8828 -1.84289,-0.3588 -3.71439,-0.5411 -5.55469,-0.916 -2.34234,-0.4659 -4.69398,-0.8664 -7.04883,-1.2637 -2.69582,-0.4893 -5.39922,-0.9396 -8.10156,-1.3906 -1.81445,-0.2642 -3.62473,-0.5377 -5.44922,-0.7266 -1.93306,-0.1826 -3.85563,-0.4661 -5.74805,-0.9082 -1.40318,-0.333 -2.81683,-0.6277 -4.24804,-0.8125 -1.65624,-0.2711 -3.28978,-0.6626 -4.96094,-0.832 -1.83803,-0.2517 -3.67672,-0.5166 -5.50195,-0.8477 -1.68318,-0.3347 -3.36589,-0.6753 -5.04297,-1.039 -1.58624,-0.2925 -3.15651,-0.6612 -4.73438,-0.9942 -1.32633,-0.3316 -2.71235,-0.3924 -4.02148,-0.8125 -1.24839,-0.3529 -2.54304,-0.5413 -3.7793,-0.9414 -1.00959,-0.3393 -2.02864,-0.6527 -3.01562,-1.0547 -0.96277,-0.2872 -1.90647,-0.6315 -2.88477,-0.8613 -1.06282,-0.3313 -2.07028,-0.7686 -3.08203,-1.2207 -0.30632,-0.1286 -0.61281,-0.2561 -0.91992,-0.3828 -1.28759,-0.01 -2.7574,-0.2803 -4.37891,-0.9004 -1.44565,-0.5528 -2.90746,-1.0711 -4.31836,-1.709 -0.74357,-0.3494 -1.48457,-0.7008 -2.21484,-1.0742 -0.26363,-0.043 -0.52739,-0.089 -0.78711,-0.1504 -1.30851,-0.2666 -2.64889,-0.3545 -3.94336,-0.7031 -1.34381,-0.3614 -2.63037,-0.8497 -3.92969,-1.3399 -0.94223,-0.3458 -1.89007,-0.6693 -2.8418,-0.9863 -1.28559,-0.4277 -2.51001,-0.9669 -3.6914,-1.6289 -1.17052,-0.4891 -2.36854,-0.8358 -3.60742,-1.125 -1.26542,-0.3928 -2.53157,-0.7875 -3.81836,-1.1035 -1.57635,-0.3848 -3.19566,-0.5536 -4.77149,-0.9434 -1.80968,-0.4529 -3.63264,-0.8586 -5.41601,-1.4101 -1.67678,-0.5126 -3.34717,-1.0393 -4.99414,-1.6426 -1.90834,-0.7186 -3.78736,-1.536 -5.59375,-2.4824 -1.88185,-1.0313 -3.78346,-2.0203 -5.6836,-3.0176 -2.03961,-1.0233 -4.05411,-2.1328 -5.85937,-3.5391 -1.66385,-1.2026 -3.26713,-2.4864 -4.94531,-3.6699 -1.69843,-1.251 -3.41177,-2.483 -5.17579,-3.6406 -1.50585,-1.0284 -3.00552,-2.0607 -4.5625,-3.0117 -1.85529,-1.1684 -3.7335,-2.2973 -5.57031,-3.4942 -1.76784,-1.2276 -3.46114,-2.5504 -4.95898,-4.1035 -1.71056,-1.706 -3.37969,-3.456 -5.00391,-5.2441 -1.64995,-1.8215 -3.38948,-3.5842 -4.71484,-5.668 -6.08836,-9.5724 9.52514,5.6491 9.94922,-5.6875 6.8e-4,-0.013 -0.005,-0.041 -0.004,-0.053 h 0.002 0.002 0.002 c 1.05761,1.2666 2.14558,2.492 3.25586,3.7168 1.49375,1.6437 3.02738,3.2532 4.60156,4.8203 1.01425,1.0701 2.17366,1.9656 3.38477,2.7969 1.7101,1.0916 3.44484,2.1435 5.16211,3.2246 1.67427,1.029 3.29318,2.137 4.91601,3.2441 1.87679,1.2358 3.70278,2.5465 5.51172,3.8789 1.65078,1.1536 3.21424,2.4255 4.84961,3.5996 1.30247,1.0315 2.76673,1.8412 4.25586,2.5684 0.38957,0.2036 0.77859,0.4075 1.16797,0.6113 -0.49696,-2.957 1.69874,-5.5489 5.47461,-5.5527 1.48705,0 3.21936,0.3988 5.1289,1.3359 1.91072,0.9377 3.84277,1.8386 5.75782,2.7715 3.04429,1.4997 6.00752,3.1587 8.95898,4.832 0.92067,0.5137 1.8361,1.0349 2.75,1.5606 0.1946,-0.2366 0.40081,-0.4634 0.62109,-0.6778 0.13038,-0.1268 0.27891,-0.2296 0.43946,-0.3144 -1.50551,-0.6337 -2.99764,-1.3114 -4.47461,-2.0371 -8.27592,-4.0098 -16.70914,-7.8391 -24.20508,-13.2305 -9.3307,-6.5017 -18.02017,-13.7266 -24.83594,-22.9375 -6.82001,-9.646 -13.08781,-19.613 -18.10156,-30.3105 -2.97334,-0.4669 -6.40069,-1.1279 -10.39453,-2.0039 -6.68833,-1.467 -10.45828,-8.8413 -15.6875,-13.2618 -2.83269,-5.7213 -6.08956,-11.2516 -8.49805,-17.164 -0.6752,-1.6575 -1.26023,-3.3492 -1.79297,-5.0586 -0.0766,-0.036 -0.15236,-0.07 -0.22656,-0.1055 -4.81463,-2.2799 -9.3856,-5.0428 -14.07813,-7.5644 -15.15701,-9.5728 -28.69996,-21.2313 -37.93164,-36.7989 -5.73403,-9.6694 -6.67841,-14.152 -10.33203,-24.7246 -8.01489,-29.2007 -2.51581,-58.5686 4.18946,-87.3574 3.89188,-15.1122 9.02115,-29.817 15.13867,-44.1113 -11.34674,-13.248 -22.76178,-26.5677 -31.63281,-41.6563 -8.1313,-13.8303 -2.42806,-24.0159 6.19531,-24.3242 5.17402,-0.185 11.39878,3.1849 16.31836,11.459 6.13887,10.3248 13.59863,19.7225 21.32812,28.8867 0.47767,-0.9114 0.95845,-1.8208 1.44336,-2.7285 9.14807,-16.2856 20.61584,-31.4214 35.26172,-43.166 1.22304,-0.9808 2.48843,-1.9069 3.76563,-2.8164 1.48088,-6.5762 3.10562,-13.1185 4.93554,-19.6075 1.02723,-3.6426 1.93974,-7.3346 3.32813,-10.8554 1.65472,-4.1962 3.85111,-8.1577 5.77734,-12.2364 3.60948,-4.2487 6.40961,-9.3492 10.83008,-12.746 17.27607,-13.2756 36.51891,-13.3818 54.41992,-1.4063 10.4491,6.9903 14.11758,14.534 20.875,24.5879 10.09079,18.5028 18.74377,37.8952 24.05274,58.3457 1.17449,4.5242 2.0689,9.1176 3.10351,13.6758 3.22023,20.3402 5.43216,41.2111 2.6875,61.7578 -0.50877,3.8087 -1.35546,7.5653 -2.0332,11.3477 -3.0467,13.0812 -7.0204,25.8966 -11.41211,38.5742 5.47071,-4.5473 11.43945,-8.3808 18.19922,-10.9317 8.25609,-9.2322 16.1385,-18.843 24.52539,-27.9023 2.03098,-2.3406 4.06121,-4.6826 6.08984,-7.0254 -1.84935,-33.5421 -2.83575,-67.1159 -3.83594,-100.6914 -0.67654,-28.6217 -1.47651,-57.2427 -1.93359,-85.8692 -0.0848,-5.3119 -0.18204,-10.625 -0.15234,-15.9375 0.015,-2.6869 -2.35274,-7.5553 0.28711,-8.0566 0.80706,-0.1533 1.61489,-0.299 2.42382,-0.4375 -0.0235,-0.025 -0.0468,-0.049 -0.0703,-0.074 -1.42962,-1.5123 -2.59111,-3.2435 -3.59765,-5.082 -1.00063,0.1026 -1.81595,0.1591 -2.3125,0.1367 -4.35788,-0.1967 -10.52601,1.9429 -12.98243,-1.6621 -6.82837,-10.021 -7.75799,-22.9775 -11.63672,-34.4668 1.39675,-1.8111 2.68973,-3.7069 4.18946,-5.4336 -0.42177,-3.3796 -0.64245,-6.794 -0.73047,-10.1953 0.48339,-13.2224 2.80299,-26.2356 10.60547,-37.2871 1.26139,-1.5086 2.45958,-3.074 3.76367,-4.545 0.0269,-12.5949 0.0709,-25.1883 0.10156,-37.7832 0.0168,-7.0565 0.0284,-14.1114 0.0371,-21.1679 -0.0158,-0.034 -0.0312,-0.07 -0.0469,-0.1036 -4.59515,-11.6575 -8.04387,-23.7585 -10.00196,-36.1503 -0.0895,-0.7561 -0.17514,-1.51501 -0.25781,-2.27153 -0.74622,0.49587 -1.52144,0.95622 -2.32617,1.37893 -3.30014,1.7335 -6.80915,3.5089 -10.52734,3.7754 -5.02408,0.3602 -9.99116,-1.2978 -14.98633,-1.9453 -3.22226,-2.21465 -6.73568,-4.05423 -9.66602,-6.64262 -6.02496,-5.32192 -9.69624,-13.99374 -12.14844,-22.25977 -1.67807,0.063 -3.37433,-0.10489 -5.08984,-0.60742 -5.17869,-1.51702 -9.61995,-4.89504 -14.42969,-7.3418 -1.92046,-2.70103 -4.16854,-5.19545 -5.76172,-8.10156 -5.83384,-10.64146 -4.77953,-25.71914 -4.11718,-37.35742 1.13171,-11.49395 2.3735,-22.98634 3.88476,-34.4375 1.42801,-9.38257 4.17644,-18.44713 6.75586,-27.55079 2.65855,-8.77205 6.48227,-17.10817 10.70117,-25.22265 3.84898,-7.8228 8.53308,-15.11879 14.30664,-21.64258 2.97482,-3.19093 6.35444,-5.59728 9.9961,-7.46875 -2.48465,-0.18114 -4.50704,-0.4784 -5.76367,-0.93555 -6.27277,-2.28197 -10.84296,-7.79057 -16.26368,-11.68554 -0.21539,-2.0094 -0.5941,-4.016 -0.91796,-6.02344 z m 23.76171,0.002 c -0.51441,1.29054 -0.26065,1.12274 1.17188,0 z m 208.50196,61.63867 c 0.86188,3.1319 1.09395,5.05475 1.90429,9.52735 0.15657,1.16837 0.30184,2.33754 0.4375,3.50781 6.09422,-2.13607 12.15159,-4.3807 18.16211,-6.75781 3.38079,-1.71218 5.45114,-2.99869 6.86328,-3.8125 -5.11594,-0.95277 -10.34942,-1.37586 -15.53515,-1.78516 -3.8243,-0.30184 -7.78504,-0.52241 -11.83203,-0.67969 z m 33.4707,3.91602 c 1.23513,1.12048 2.95373,2.63391 5.5293,4.56641 0.24633,0.18483 0.37797,0.26173 0.41601,0.2539 h 0.002 0.002 v -0.002 h 0.002 l 0.002,-0.002 0.002,-0.002 c 1.3e-4,-9.5e-4 -2e-5,-0.005 0,-0.006 -0.0259,-0.29738 -3.86831,-4.00401 -5.95508,-4.80859 z M 523.45898,1022.8164 c -9e-5,0.1147 10e-5,0.229 0,0.3438 0.0585,0.032 0.0972,0.052 0.10938,0.055 h 0.002 0.002 c 0.16259,-0.073 0.0641,-0.2353 -0.11329,-0.3984 z m 272.39649,121.2031 c 0.0224,0.2408 0.0459,0.48 0.0684,0.7207 0.0424,-0.2357 0.36567,-0.688 0.12695,-0.707 -0.0648,-0.01 -0.13052,-0.01 -0.19531,-0.014 z m -83.55274,115.6485 c -3.17538,4.5678 -6.84034,8.795 -11.12304,12.5429 -3.36193,2.9421 -7.27336,5.1886 -10.91016,7.7832 -4.31991,1.62 -8.428,3.9919 -12.95898,4.8614 -1.06206,0.2038 -2.11778,0.3727 -3.16602,0.5058 0.41459,5.3414 0.75625,10.6899 1.01758,16.0469 1.38343,37.8947 0.6845,75.7781 -2.98047,113.5488 -3.59722,36.8811 -8.38627,73.8425 -20.26562,109.125 -3.11008,9.0697 -7.03834,21.2605 -12.39454,33.1504 3.12547,0.6923 6.24591,1.4057 9.36133,2.1406 14.43921,0.4209 28.89024,0.5963 43.32617,0.7676 21.38139,0.1547 42.77916,0.1841 64.15821,0.7578 -0.37717,-1.5805 -0.74755,-3.1618 -1.11524,-4.7441 -5.15237,-22.7058 -8.16957,-45.8116 -10.79101,-68.9219 -4.39513,-40.9011 -7.76349,-81.9004 -10.79883,-122.9219 -2.64874,-34.1276 -4.90006,-68.2827 -6.9043,-102.4531 -4.68748,-0.5915 -9.25154,-1.2971 -13.55859,-1.9492 -0.29233,-0.08 -0.59158,-0.1592 -0.89649,-0.2402 z m -252.44531,364.4785 c 1.06601,0.2154 2.14431,0.3801 3.23828,0.4844 8.16899,0.9572 16.38314,1.3774 24.60157,1.6406 -9.29473,-0.4948 -18.59702,-1.0188 -27.83985,-2.125 z m 29.97266,1.3613 c -0.0159,0.2759 -0.0322,0.5523 -0.0469,0.8281 1.6099,0.047 3.22039,0.089 4.83008,0.1289 -1.59469,-0.3176 -3.18901,-0.6368 -4.7832,-0.957 z m 1.07617,65.6992 c 0.79581,0.1719 1.59244,0.343 2.38867,0.5118 0.007,-0.1499 0.0146,-0.2998 0.0234,-0.4493 -0.80368,-0.021 -1.60835,-0.043 -2.41211,-0.062 z" />
      </g>
    </g>
  </g>
</svg>
