<?xml version="1.0" encoding="UTF-8" standalone="no"?>
<svg
   width="3839.6719"
   height="2160"
   viewBox="0 0 3839.6719 2160"
   version="1.1"
   id="svg877"
   xmlns="http://www.w3.org/2000/svg"
   xmlns:svg="http://www.w3.org/2000/svg">
  <defs
     id="defs864">
    <clipPath
       id="clip-8">
      <path
         clip-rule="nonzero"
         d="m 0,1212 h 3840 v 948 H 0 Z m 0,0"
         id="path478" />
    </clipPath>
    <clipPath
       id="clip-9">
      <path
         clip-rule="nonzero"
         d="m 1542.1914,1212.2969 c -0.7422,0 -1.5,0.01 -2.2617,0.027 l -4.9492,0.078 c -0.6524,-0.023 -1.3321,-0.035 -2.0586,-0.035 -17.8321,0 -59.2031,7.2422 -124.1133,21.7226 -39.8203,8.5821 -64.668,17.1016 -74.5273,25.5665 -18.043,8.3945 -28.1602,34.6093 -30.3594,78.6406 -10.7227,18.1015 -21.5,39.207 -32.3321,63.3164 -4.0585,6.3281 -8.8789,10.6953 -14.4609,13.1015 -12.8281,3.1836 -24.6484,4.7774 -35.4492,4.7774 -13.0703,0 -24.6602,-2.3281 -34.7695,-6.9844 -14.0391,-6.9765 -24.0508,-13.2851 -30.0313,-18.918 -23.7305,-29.5937 -37.5976,-45.0937 -41.5976,-46.5039 -3.9219,-2.082 -7.961,-3.1211 -12.1016,-3.1211 -2.5313,0 -5.0899,0.3829 -7.6992,1.1524 -19.2696,4.6601 -41.2696,11.6953 -65.9922,21.1094 -7.0078,3.2304 -12.6289,6.6289 -16.8477,10.1875 l -33.58201,58.1093 c -8.66406,13.1875 -16.55859,22.0079 -23.6914,26.4649 -10.88672,6.207 -18.90625,9.7773 -24.0625,10.7031 -52.07813,8.8789 -81.58203,14.4531 -88.51172,16.7227 -15.16406,4.4726 -28.60938,11.1484 -40.33985,20.0312 l -51.50781,86.6524 h -0.0351 c -32.34766,4.9257 -60.47657,10.0742 -84.37891,15.4453 C 430.40234,1671.7188 289.61719,1705.7031 244.17187,1712.5 161.63672,1724.1172 80.246094,1730.8281 0,1732.6328 H 0.015625 V 2160 l 3839.624975,-0.082 v -434.3242 l -474.2304,-35.7461 C 3238.9688,1668.5938 3084.8281,1636.707 2903,1594.1875 c -36.6914,-6.8672 -72.25,-12.1133 -106.6602,-15.7344 h -0.051 v -16.7187 h 28.9922 c 7.2695,0 13.1601,-5.8906 13.1601,-13.1563 v -48.7695 c 0,-6.8672 -5.0312,-13.0039 -11.8711,-13.6562 -0.4297,-0.043 -0.8594,-0.062 -1.289,-0.062 -7.2618,0 -13.1524,5.8906 -13.1524,13.1562 v 17.5313 c 0,10.2968 0.4297,13.1367 -9.8672,13.1367 h -5.9726 v -76.2344 c 0,-12.1875 -9.1094,-22.4883 -20.8399,-22.4883 -0.2304,0 -0.4492,0 -0.6601,0.012 h -0.039 c -0.1992,-0.01 -0.4102,-0.012 -0.6211,-0.012 -11.7305,0 -20.8398,10.2969 -20.8398,22.4883 v 76.2344 h -5.9688 c -10.3008,0 -9.8711,-2.8399 -9.8711,-13.1367 V 1499.25 c 0,-7.2656 -5.8906,-13.1562 -13.1601,-13.1562 -0.418,0 -0.8477,0.019 -1.2891,0.062 -6.8398,0.6523 -11.8594,6.789 -11.8594,13.6562 v 48.7695 c 0,7.2657 5.8907,13.1563 13.1485,13.1563 h 29 v 13.1797 c -48.7578,-2.4727 -153.8203,-4.3555 -315.1993,-5.6407 h -0.051 c -11.7578,-10.2265 -22.1407,-16.9375 -31.1485,-20.1367 l -213.7812,-40.2968 c -48.8399,-5.2071 -91.0781,-10.0899 -126.7383,-14.6524 h -0.051 v -36.2734 h 7.1211 c 4.6172,0 9.0781,-0.9492 13.1289,-2.6602 6.0781,-2.5742 11.1992,-6.8359 14.8399,-12.2187 3.6406,-5.3711 5.7812,-11.9453 5.7695,-18.8868 v -22.3515 c 0,-8.1055 -6.5703,-14.6758 -14.668,-14.6797 -8.1133,0 -14.6836,6.5703 -14.6836,14.6797 v 22.3476 c 0,0.6563 -0.1172,1.1954 -0.3398,1.7188 -0.3281,0.7695 -0.8985,1.4766 -1.6094,1.9531 -0.7305,0.4766 -1.4883,0.7383 -2.457,0.7422 h -7.1016 l 0.059,-83.8281 h 4.3008 0.019 c 7.0391,0 13.6992,-2.1758 19.1524,-5.8633 5.4492,-3.6914 9.7773,-8.8906 12.3867,-15.0586 1.7422,-4.1055 2.7031,-8.6445 2.7031,-13.3359 v -11.5 c 0,-8.1055 -6.5703,-14.6797 -14.6797,-14.6797 v 0 c -8.1133,0 -14.6836,6.5703 -14.6836,14.6758 v 11.5 c -0.01,1.0664 -0.289,1.9336 -0.8164,2.7304 -0.5312,0.793 -1.3125,1.4336 -2.1719,1.793 -0.5781,0.2422 -1.1914,0.3789 -1.9101,0.3789 h -4.3008 v -68.7812 c 0,-12.8711 -10.4375,-23.3086 -23.3086,-23.3086 h -0.012 c -12.8672,0 -23.3086,10.4336 -23.3086,23.3047 v 58.9961 h -7.1016 c -0.957,0 -1.7265,-0.2657 -2.4492,-0.7422 -0.7187,-0.4727 -1.289,-1.1797 -1.6211,-1.9532 -0.207,-0.5195 -0.3398,-1.0625 -0.3281,-1.7148 l -0.012,-22.3516 c 0,-8.1054 -6.5664,-14.6757 -14.668,-14.6757 -8.1094,0 -14.6797,6.5703 -14.6797,14.6796 v 22.3477 c -0.012,6.9414 2.1407,13.5156 5.7696,18.8906 3.6484,5.3789 8.7695,9.6406 14.8515,12.2149 4.0391,1.7148 8.5078,2.6601 13.1289,2.6601 h 7.1094 l -0.051,103.3985 h -4.3086 c -0.7109,0 -1.3203,-0.1368 -1.9023,-0.3789 -0.8594,-0.3594 -1.6485,-1 -2.168,-1.793 -0.5312,-0.7969 -0.8203,-1.6641 -0.832,-2.7305 v -11.5 c 0,-8.1055 -6.5664,-14.6797 -14.6797,-14.6797 -8.0977,0 -14.668,6.5742 -14.668,14.6797 v 11.5 c -0.012,4.6875 0.9492,9.2305 2.6875,13.336 2.6133,6.1679 6.9414,11.3671 12.4024,15.0585 5.4414,3.6875 12.1093,5.8594 19.1406,5.8594 h 0.019 4.3086 v 20.1563 c -37.1679,-5.3907 -63.7695,-10.2657 -79.8086,-14.6289 -18.1289,-4.6133 -32.5,-10.4922 -43.1015,-17.6407 l -62.6172,-58.8086 c -3.5625,-1.7734 -8.961,-3.0625 -16.1914,-3.8671 -4,0.043 -7.8399,0.066 -11.5117,0.066 -25.75,0 -43.379,-1.0586 -52.8985,-3.1758 -6.7617,-1.7774 -17.6992,-10.6836 -32.8203,-26.707 -29,-2.086 -46.3086,-4.5782 -51.9492,-7.4766 -9.5313,-4.9024 -15.582,-11.0742 -18.1211,-18.5234 -3.7578,-8.2266 -10,-36.7579 -18.7383,-85.5899 -3.0898,-6.3242 -8.3008,-9.5351 -15.6016,-9.6367 l -28.3789,6.0781 c -1.8515,-5.164 -3.7812,-10.5976 -5.7812,-16.3047 -6.4883,-12.8945 -19.8203,-19.3437 -39.9883,-19.3437 z m 0,0"
         id="path479" />
    </clipPath>
    <clipPath
       id="clip-10">
      <path
         clip-rule="nonzero"
         d="m 1542.1914,1212.2969 c -0.7422,0 -1.5,0.01 -2.2617,0.027 l -4.9492,0.078 c -0.6524,-0.023 -1.3321,-0.035 -2.0586,-0.035 -17.8321,0 -59.2031,7.2422 -124.1133,21.7226 -39.8203,8.5821 -64.668,17.1016 -74.5273,25.5665 -18.043,8.3945 -28.1602,34.6093 -30.3594,78.6406 -10.7227,18.1015 -21.5,39.207 -32.3321,63.3164 -4.0585,6.3281 -8.8789,10.6953 -14.4609,13.1015 -12.8281,3.1836 -24.6484,4.7774 -35.4492,4.7774 -13.0703,0 -24.6602,-2.3281 -34.7695,-6.9844 -14.0391,-6.9765 -24.0508,-13.2851 -30.0313,-18.918 -23.7305,-29.5937 -37.5976,-45.0937 -41.5976,-46.5039 -3.9219,-2.082 -7.961,-3.1211 -12.1016,-3.1211 -2.5313,0 -5.0899,0.3829 -7.6992,1.1524 -19.2696,4.6601 -41.2696,11.6953 -65.9922,21.1094 -7.0078,3.2304 -12.6289,6.6289 -16.8477,10.1875 l -33.58201,58.1093 c -8.66406,13.1875 -16.55859,22.0079 -23.6914,26.4649 -10.88672,6.207 -18.90625,9.7773 -24.0625,10.7031 -52.07813,8.8789 -81.58203,14.4531 -88.51172,16.7227 -15.16406,4.4726 -28.60938,11.1484 -40.33985,20.0312 l -51.50781,86.6524 h -0.0351 c -32.34766,4.9257 -60.47657,10.0742 -84.37891,15.4453 C 430.40234,1671.7188 289.61719,1705.7031 244.17187,1712.5 161.63672,1724.1172 80.246094,1730.8281 0,1732.6328 H 0.015625 V 2160 l 3839.624975,-0.082 v -434.3242 l -474.2304,-35.7461 C 3238.9688,1668.5938 3084.8281,1636.707 2903,1594.1875 c -36.6914,-6.8672 -72.25,-12.1133 -106.6602,-15.7344 h -0.051 v -16.7187 h 28.9922 c 7.2695,0 13.1601,-5.8906 13.1601,-13.1563 v -48.7695 c 0,-6.8672 -5.0312,-13.0039 -11.8711,-13.6562 -0.4297,-0.043 -0.8594,-0.062 -1.289,-0.062 -7.2618,0 -13.1524,5.8906 -13.1524,13.1562 v 17.5313 c 0,10.2968 0.4297,13.1367 -9.8672,13.1367 h -5.9726 v -76.2344 c 0,-12.1875 -9.1094,-22.4883 -20.8399,-22.4883 -0.2304,0 -0.4492,0 -0.6601,0.012 h -0.039 c -0.1992,-0.01 -0.4102,-0.012 -0.6211,-0.012 -11.7305,0 -20.8398,10.2969 -20.8398,22.4883 v 76.2344 h -5.9688 c -10.3008,0 -9.8711,-2.8399 -9.8711,-13.1367 V 1499.25 c 0,-7.2656 -5.8906,-13.1562 -13.1601,-13.1562 -0.418,0 -0.8477,0.019 -1.2891,0.062 -6.8398,0.6523 -11.8594,6.789 -11.8594,13.6562 v 48.7695 c 0,7.2657 5.8907,13.1563 13.1485,13.1563 h 29 v 13.1797 c -48.7578,-2.4727 -153.8203,-4.3555 -315.1993,-5.6407 h -0.051 c -11.7578,-10.2265 -22.1407,-16.9375 -31.1485,-20.1367 l -213.7812,-40.2968 c -48.8399,-5.2071 -91.0781,-10.0899 -126.7383,-14.6524 h -0.051 v -36.2734 h 7.1211 c 4.6172,0 9.0781,-0.9492 13.1289,-2.6602 6.0781,-2.5742 11.1992,-6.8359 14.8399,-12.2187 3.6406,-5.3711 5.7812,-11.9453 5.7695,-18.8868 v -22.3515 c 0,-8.1055 -6.5703,-14.6758 -14.668,-14.6797 -8.1133,0 -14.6836,6.5703 -14.6836,14.6797 v 22.3476 c 0,0.6563 -0.1172,1.1954 -0.3398,1.7188 -0.3281,0.7695 -0.8985,1.4766 -1.6094,1.9531 -0.7305,0.4766 -1.4883,0.7383 -2.457,0.7422 h -7.1016 l 0.059,-83.8281 h 4.3008 0.019 c 7.0391,0 13.6992,-2.1758 19.1524,-5.8633 5.4492,-3.6914 9.7773,-8.8906 12.3867,-15.0586 1.7422,-4.1055 2.7031,-8.6445 2.7031,-13.3359 v -11.5 c 0,-8.1055 -6.5703,-14.6797 -14.6797,-14.6797 v 0 c -8.1133,0 -14.6836,6.5703 -14.6836,14.6758 v 11.5 c -0.01,1.0664 -0.289,1.9336 -0.8164,2.7304 -0.5312,0.793 -1.3125,1.4336 -2.1719,1.793 -0.5781,0.2422 -1.1914,0.3789 -1.9101,0.3789 h -4.3008 v -68.7812 c 0,-12.8711 -10.4375,-23.3086 -23.3086,-23.3086 h -0.012 c -12.8672,0 -23.3086,10.4336 -23.3086,23.3047 v 58.9961 h -7.1016 c -0.957,0 -1.7265,-0.2657 -2.4492,-0.7422 -0.7187,-0.4727 -1.289,-1.1797 -1.6211,-1.9532 -0.207,-0.5195 -0.3398,-1.0625 -0.3281,-1.7148 l -0.012,-22.3516 c 0,-8.1054 -6.5664,-14.6757 -14.668,-14.6757 -8.1094,0 -14.6797,6.5703 -14.6797,14.6796 v 22.3477 c -0.012,6.9414 2.1407,13.5156 5.7696,18.8906 3.6484,5.3789 8.7695,9.6406 14.8515,12.2149 4.0391,1.7148 8.5078,2.6601 13.1289,2.6601 h 7.1094 l -0.051,103.3985 h -4.3086 c -0.7109,0 -1.3203,-0.1368 -1.9023,-0.3789 -0.8594,-0.3594 -1.6485,-1 -2.168,-1.793 -0.5312,-0.7969 -0.8203,-1.6641 -0.832,-2.7305 v -11.5 c 0,-8.1055 -6.5664,-14.6797 -14.6797,-14.6797 -8.0977,0 -14.668,6.5742 -14.668,14.6797 v 11.5 c -0.012,4.6875 0.9492,9.2305 2.6875,13.336 2.6133,6.1679 6.9414,11.3671 12.4024,15.0585 5.4414,3.6875 12.1093,5.8594 19.1406,5.8594 h 0.019 4.3086 v 20.1563 c -37.1679,-5.3907 -63.7695,-10.2657 -79.8086,-14.6289 -18.1289,-4.6133 -32.5,-10.4922 -43.1015,-17.6407 l -62.6172,-58.8086 c -3.5625,-1.7734 -8.961,-3.0625 -16.1914,-3.8671 -4,0.043 -7.8399,0.066 -11.5117,0.066 -25.75,0 -43.379,-1.0586 -52.8985,-3.1758 -6.7617,-1.7774 -17.6992,-10.6836 -32.8203,-26.707 -29,-2.086 -46.3086,-4.5782 -51.9492,-7.4766 -9.5313,-4.9024 -15.582,-11.0742 -18.1211,-18.5234 -3.7578,-8.2266 -10,-36.7579 -18.7383,-85.5899 -3.0898,-6.3242 -8.3008,-9.5351 -15.6016,-9.6367 l -28.3789,6.0781 c -1.8515,-5.164 -3.7812,-10.5976 -5.7812,-16.3047 -6.4883,-12.8945 -19.8203,-19.3437 -39.9883,-19.3437 z m 0,0"
         id="path480" />
    </clipPath>
    <radialGradient
       id="radial-pattern-3"
       gradientUnits="userSpaceOnUse"
       cx="212.18851"
       cy="533.05573"
       fx="212.18851"
       fy="533.05573"
       r="1920.8025"
       gradientTransform="translate(1707.63,546.94)">
      <stop
         offset="0"
         stop-color="rgb(84.957886%, 46.221924%, 52.482605%)"
         stop-opacity="1"
         id="stop480" />
      <stop
         offset="0.0078125"
         stop-color="rgb(84.74884%, 46.144104%, 52.383423%)"
         stop-opacity="1"
         id="stop481" />
      <stop
         offset="0.0117188"
         stop-color="rgb(84.608459%, 46.090698%, 52.31781%)"
         stop-opacity="1"
         id="stop482" />
      <stop
         offset="0.015625"
         stop-color="rgb(84.469604%, 46.038818%, 52.250671%)"
         stop-opacity="1"
         id="stop483" />
      <stop
         offset="0.0195312"
         stop-color="rgb(84.33075%, 45.986938%, 52.185059%)"
         stop-opacity="1"
         id="stop484" />
      <stop
         offset="0.0234375"
         stop-color="rgb(84.190369%, 45.935059%, 52.119446%)"
         stop-opacity="1"
         id="stop485" />
      <stop
         offset="0.0273438"
         stop-color="rgb(84.051514%, 45.883179%, 52.053833%)"
         stop-opacity="1"
         id="stop486" />
      <stop
         offset="0.03125"
         stop-color="rgb(83.911133%, 45.831299%, 51.98822%)"
         stop-opacity="1"
         id="stop487" />
      <stop
         offset="0.0351562"
         stop-color="rgb(83.772278%, 45.779419%, 51.921082%)"
         stop-opacity="1"
         id="stop488" />
      <stop
         offset="0.0390625"
         stop-color="rgb(83.633423%, 45.726013%, 51.855469%)"
         stop-opacity="1"
         id="stop489" />
      <stop
         offset="0.0429688"
         stop-color="rgb(83.493042%, 45.674133%, 51.789856%)"
         stop-opacity="1"
         id="stop490" />
      <stop
         offset="0.046875"
         stop-color="rgb(83.354187%, 45.622253%, 51.724243%)"
         stop-opacity="1"
         id="stop491" />
      <stop
         offset="0.0507812"
         stop-color="rgb(83.215332%, 45.570374%, 51.65863%)"
         stop-opacity="1"
         id="stop492" />
      <stop
         offset="0.0546875"
         stop-color="rgb(83.074951%, 45.518494%, 51.593018%)"
         stop-opacity="1"
         id="stop493" />
      <stop
         offset="0.0585938"
         stop-color="rgb(82.936096%, 45.466614%, 51.525879%)"
         stop-opacity="1"
         id="stop494" />
      <stop
         offset="0.0625"
         stop-color="rgb(82.797241%, 45.414734%, 51.460266%)"
         stop-opacity="1"
         id="stop495" />
      <stop
         offset="0.0664062"
         stop-color="rgb(82.65686%, 45.362854%, 51.394653%)"
         stop-opacity="1"
         id="stop496" />
      <stop
         offset="0.0703125"
         stop-color="rgb(82.518005%, 45.309448%, 51.329041%)"
         stop-opacity="1"
         id="stop497" />
      <stop
         offset="0.0742188"
         stop-color="rgb(82.37915%, 45.257568%, 51.263428%)"
         stop-opacity="1"
         id="stop498" />
      <stop
         offset="0.078125"
         stop-color="rgb(82.23877%, 45.205688%, 51.197815%)"
         stop-opacity="1"
         id="stop499" />
      <stop
         offset="0.0820312"
         stop-color="rgb(82.099915%, 45.153809%, 51.130676%)"
         stop-opacity="1"
         id="stop500" />
      <stop
         offset="0.0859375"
         stop-color="rgb(81.959534%, 45.101929%, 51.065063%)"
         stop-opacity="1"
         id="stop501" />
      <stop
         offset="0.0898438"
         stop-color="rgb(81.820679%, 45.050049%, 50.999451%)"
         stop-opacity="1"
         id="stop502" />
      <stop
         offset="0.09375"
         stop-color="rgb(81.681824%, 44.998169%, 50.933838%)"
         stop-opacity="1"
         id="stop503" />
      <stop
         offset="0.0976562"
         stop-color="rgb(81.541443%, 44.944763%, 50.868225%)"
         stop-opacity="1"
         id="stop504" />
      <stop
         offset="0.101562"
         stop-color="rgb(81.402588%, 44.892883%, 50.802612%)"
         stop-opacity="1"
         id="stop505" />
      <stop
         offset="0.105469"
         stop-color="rgb(81.263733%, 44.841003%, 50.735474%)"
         stop-opacity="1"
         id="stop506" />
      <stop
         offset="0.109375"
         stop-color="rgb(81.123352%, 44.789124%, 50.669861%)"
         stop-opacity="1"
         id="stop507" />
      <stop
         offset="0.113281"
         stop-color="rgb(80.984497%, 44.737244%, 50.604248%)"
         stop-opacity="1"
         id="stop508" />
      <stop
         offset="0.117188"
         stop-color="rgb(80.845642%, 44.685364%, 50.538635%)"
         stop-opacity="1"
         id="stop509" />
      <stop
         offset="0.121094"
         stop-color="rgb(80.705261%, 44.633484%, 50.473022%)"
         stop-opacity="1"
         id="stop510" />
      <stop
         offset="0.125"
         stop-color="rgb(80.566406%, 44.581604%, 50.40741%)"
         stop-opacity="1"
         id="stop511" />
      <stop
         offset="0.128906"
         stop-color="rgb(80.427551%, 44.528198%, 50.340271%)"
         stop-opacity="1"
         id="stop512" />
      <stop
         offset="0.132812"
         stop-color="rgb(80.28717%, 44.476318%, 50.274658%)"
         stop-opacity="1"
         id="stop513" />
      <stop
         offset="0.136719"
         stop-color="rgb(80.148315%, 44.424438%, 50.209045%)"
         stop-opacity="1"
         id="stop514" />
      <stop
         offset="0.140625"
         stop-color="rgb(80.007935%, 44.372559%, 50.143433%)"
         stop-opacity="1"
         id="stop515" />
      <stop
         offset="0.144531"
         stop-color="rgb(79.86908%, 44.320679%, 50.07782%)"
         stop-opacity="1"
         id="stop516" />
      <stop
         offset="0.148438"
         stop-color="rgb(79.730225%, 44.268799%, 50.012207%)"
         stop-opacity="1"
         id="stop517" />
      <stop
         offset="0.152344"
         stop-color="rgb(79.589844%, 44.216919%, 49.945068%)"
         stop-opacity="1"
         id="stop518" />
      <stop
         offset="0.15625"
         stop-color="rgb(79.450989%, 44.163513%, 49.879456%)"
         stop-opacity="1"
         id="stop519" />
      <stop
         offset="0.160156"
         stop-color="rgb(79.312134%, 44.111633%, 49.813843%)"
         stop-opacity="1"
         id="stop520" />
      <stop
         offset="0.164062"
         stop-color="rgb(79.171753%, 44.059753%, 49.74823%)"
         stop-opacity="1"
         id="stop521" />
      <stop
         offset="0.167969"
         stop-color="rgb(79.032898%, 44.007874%, 49.682617%)"
         stop-opacity="1"
         id="stop522" />
      <stop
         offset="0.171875"
         stop-color="rgb(78.894043%, 43.955994%, 49.617004%)"
         stop-opacity="1"
         id="stop523" />
      <stop
         offset="0.175781"
         stop-color="rgb(78.753662%, 43.904114%, 49.549866%)"
         stop-opacity="1"
         id="stop524" />
      <stop
         offset="0.179688"
         stop-color="rgb(78.614807%, 43.852234%, 49.484253%)"
         stop-opacity="1"
         id="stop525" />
      <stop
         offset="0.183594"
         stop-color="rgb(78.475952%, 43.800354%, 49.41864%)"
         stop-opacity="1"
         id="stop526" />
      <stop
         offset="0.1875"
         stop-color="rgb(78.335571%, 43.746948%, 49.353027%)"
         stop-opacity="1"
         id="stop527" />
      <stop
         offset="0.191406"
         stop-color="rgb(78.196716%, 43.695068%, 49.287415%)"
         stop-opacity="1"
         id="stop528" />
      <stop
         offset="0.195312"
         stop-color="rgb(78.056335%, 43.643188%, 49.221802%)"
         stop-opacity="1"
         id="stop529" />
      <stop
         offset="0.199219"
         stop-color="rgb(77.91748%, 43.591309%, 49.154663%)"
         stop-opacity="1"
         id="stop530" />
      <stop
         offset="0.203125"
         stop-color="rgb(77.778625%, 43.539429%, 49.08905%)"
         stop-opacity="1"
         id="stop531" />
      <stop
         offset="0.207031"
         stop-color="rgb(77.638245%, 43.487549%, 49.023438%)"
         stop-opacity="1"
         id="stop532" />
      <stop
         offset="0.210938"
         stop-color="rgb(77.49939%, 43.435669%, 48.957825%)"
         stop-opacity="1"
         id="stop533" />
      <stop
         offset="0.214844"
         stop-color="rgb(77.360535%, 43.382263%, 48.892212%)"
         stop-opacity="1"
         id="stop534" />
      <stop
         offset="0.21875"
         stop-color="rgb(77.220154%, 43.330383%, 48.826599%)"
         stop-opacity="1"
         id="stop535" />
      <stop
         offset="0.222656"
         stop-color="rgb(77.081299%, 43.278503%, 48.75946%)"
         stop-opacity="1"
         id="stop536" />
      <stop
         offset="0.226562"
         stop-color="rgb(76.942444%, 43.226624%, 48.693848%)"
         stop-opacity="1"
         id="stop537" />
      <stop
         offset="0.230469"
         stop-color="rgb(76.802063%, 43.174744%, 48.628235%)"
         stop-opacity="1"
         id="stop538" />
      <stop
         offset="0.234375"
         stop-color="rgb(76.663208%, 43.122864%, 48.562622%)"
         stop-opacity="1"
         id="stop539" />
      <stop
         offset="0.238281"
         stop-color="rgb(76.524353%, 43.070984%, 48.497009%)"
         stop-opacity="1"
         id="stop540" />
      <stop
         offset="0.242188"
         stop-color="rgb(76.383972%, 43.019104%, 48.431396%)"
         stop-opacity="1"
         id="stop541" />
      <stop
         offset="0.246094"
         stop-color="rgb(76.245117%, 42.965698%, 48.364258%)"
         stop-opacity="1"
         id="stop542" />
      <stop
         offset="0.25"
         stop-color="rgb(76.104736%, 42.913818%, 48.298645%)"
         stop-opacity="1"
         id="stop543" />
      <stop
         offset="0.253906"
         stop-color="rgb(75.895691%, 42.835999%, 48.200989%)"
         stop-opacity="1"
         id="stop544" />
      <stop
         offset="0.261719"
         stop-color="rgb(75.617981%, 42.732239%, 48.068237%)"
         stop-opacity="1"
         id="stop545" />
      <stop
         offset="0.269531"
         stop-color="rgb(75.338745%, 42.626953%, 47.937012%)"
         stop-opacity="1"
         id="stop546" />
      <stop
         offset="0.277344"
         stop-color="rgb(75.059509%, 42.523193%, 47.805786%)"
         stop-opacity="1"
         id="stop547" />
      <stop
         offset="0.285156"
         stop-color="rgb(74.781799%, 42.419434%, 47.673035%)"
         stop-opacity="1"
         id="stop548" />
      <stop
         offset="0.292969"
         stop-color="rgb(74.502563%, 42.315674%, 47.541809%)"
         stop-opacity="1"
         id="stop549" />
      <stop
         offset="0.300781"
         stop-color="rgb(74.223328%, 42.210388%, 47.410583%)"
         stop-opacity="1"
         id="stop550" />
      <stop
         offset="0.308594"
         stop-color="rgb(73.944092%, 42.106628%, 47.277832%)"
         stop-opacity="1"
         id="stop551" />
      <stop
         offset="0.316406"
         stop-color="rgb(73.666382%, 42.002869%, 47.146606%)"
         stop-opacity="1"
         id="stop552" />
      <stop
         offset="0.324219"
         stop-color="rgb(73.387146%, 41.899109%, 47.015381%)"
         stop-opacity="1"
         id="stop553" />
      <stop
         offset="0.332031"
         stop-color="rgb(73.10791%, 41.793823%, 46.882629%)"
         stop-opacity="1"
         id="stop554" />
      <stop
         offset="0.339844"
         stop-color="rgb(72.8302%, 41.690063%, 46.751404%)"
         stop-opacity="1"
         id="stop555" />
      <stop
         offset="0.347656"
         stop-color="rgb(72.550964%, 41.586304%, 46.620178%)"
         stop-opacity="1"
         id="stop556" />
      <stop
         offset="0.355469"
         stop-color="rgb(72.271729%, 41.482544%, 46.487427%)"
         stop-opacity="1"
         id="stop557" />
      <stop
         offset="0.363281"
         stop-color="rgb(71.992493%, 41.377258%, 46.356201%)"
         stop-opacity="1"
         id="stop558" />
      <stop
         offset="0.371094"
         stop-color="rgb(71.714783%, 41.273499%, 46.224976%)"
         stop-opacity="1"
         id="stop559" />
      <stop
         offset="0.378906"
         stop-color="rgb(71.435547%, 41.169739%, 46.092224%)"
         stop-opacity="1"
         id="stop560" />
      <stop
         offset="0.386719"
         stop-color="rgb(71.156311%, 41.064453%, 45.960999%)"
         stop-opacity="1"
         id="stop561" />
      <stop
         offset="0.394531"
         stop-color="rgb(70.878601%, 40.960693%, 45.829773%)"
         stop-opacity="1"
         id="stop562" />
      <stop
         offset="0.402344"
         stop-color="rgb(70.599365%, 40.856934%, 45.697021%)"
         stop-opacity="1"
         id="stop563" />
      <stop
         offset="0.410156"
         stop-color="rgb(70.320129%, 40.753174%, 45.565796%)"
         stop-opacity="1"
         id="stop564" />
      <stop
         offset="0.417969"
         stop-color="rgb(70.040894%, 40.647888%, 45.43457%)"
         stop-opacity="1"
         id="stop565" />
      <stop
         offset="0.425781"
         stop-color="rgb(69.763184%, 40.544128%, 45.301819%)"
         stop-opacity="1"
         id="stop566" />
      <stop
         offset="0.433594"
         stop-color="rgb(69.483948%, 40.440369%, 45.170593%)"
         stop-opacity="1"
         id="stop567" />
      <stop
         offset="0.441406"
         stop-color="rgb(69.204712%, 40.336609%, 45.039368%)"
         stop-opacity="1"
         id="stop568" />
      <stop
         offset="0.449219"
         stop-color="rgb(68.927002%, 40.231323%, 44.906616%)"
         stop-opacity="1"
         id="stop569" />
      <stop
         offset="0.457031"
         stop-color="rgb(68.647766%, 40.127563%, 44.775391%)"
         stop-opacity="1"
         id="stop570" />
      <stop
         offset="0.464844"
         stop-color="rgb(68.36853%, 40.023804%, 44.644165%)"
         stop-opacity="1"
         id="stop571" />
      <stop
         offset="0.472656"
         stop-color="rgb(68.089294%, 39.920044%, 44.511414%)"
         stop-opacity="1"
         id="stop572" />
      <stop
         offset="0.480469"
         stop-color="rgb(67.811584%, 39.814758%, 44.380188%)"
         stop-opacity="1"
         id="stop573" />
      <stop
         offset="0.488281"
         stop-color="rgb(67.532349%, 39.710999%, 44.248962%)"
         stop-opacity="1"
         id="stop574" />
      <stop
         offset="0.496094"
         stop-color="rgb(67.253113%, 39.607239%, 44.116211%)"
         stop-opacity="1"
         id="stop575" />
      <stop
         offset="0.503906"
         stop-color="rgb(67.044067%, 39.529419%, 44.017029%)"
         stop-opacity="1"
         id="stop576" />
      <stop
         offset="0.507812"
         stop-color="rgb(66.905212%, 39.477539%, 43.951416%)"
         stop-opacity="1"
         id="stop577" />
      <stop
         offset="0.511719"
         stop-color="rgb(66.766357%, 39.424133%, 43.885803%)"
         stop-opacity="1"
         id="stop578" />
      <stop
         offset="0.515625"
         stop-color="rgb(66.625977%, 39.372253%, 43.82019%)"
         stop-opacity="1"
         id="stop579" />
      <stop
         offset="0.519531"
         stop-color="rgb(66.487122%, 39.320374%, 43.754578%)"
         stop-opacity="1"
         id="stop580" />
      <stop
         offset="0.523438"
         stop-color="rgb(66.348267%, 39.268494%, 43.687439%)"
         stop-opacity="1"
         id="stop581" />
      <stop
         offset="0.527344"
         stop-color="rgb(66.207886%, 39.216614%, 43.621826%)"
         stop-opacity="1"
         id="stop582" />
      <stop
         offset="0.53125"
         stop-color="rgb(66.069031%, 39.164734%, 43.556213%)"
         stop-opacity="1"
         id="stop583" />
      <stop
         offset="0.535156"
         stop-color="rgb(65.92865%, 39.112854%, 43.490601%)"
         stop-opacity="1"
         id="stop584" />
      <stop
         offset="0.539062"
         stop-color="rgb(65.789795%, 39.059448%, 43.424988%)"
         stop-opacity="1"
         id="stop585" />
      <stop
         offset="0.542969"
         stop-color="rgb(65.65094%, 39.007568%, 43.359375%)"
         stop-opacity="1"
         id="stop586" />
      <stop
         offset="0.546875"
         stop-color="rgb(65.510559%, 38.955688%, 43.292236%)"
         stop-opacity="1"
         id="stop587" />
      <stop
         offset="0.550781"
         stop-color="rgb(65.371704%, 38.903809%, 43.226624%)"
         stop-opacity="1"
         id="stop588" />
      <stop
         offset="0.554688"
         stop-color="rgb(65.232849%, 38.851929%, 43.161011%)"
         stop-opacity="1"
         id="stop589" />
      <stop
         offset="0.558594"
         stop-color="rgb(65.092468%, 38.800049%, 43.095398%)"
         stop-opacity="1"
         id="stop590" />
      <stop
         offset="0.5625"
         stop-color="rgb(64.953613%, 38.748169%, 43.029785%)"
         stop-opacity="1"
         id="stop591" />
      <stop
         offset="0.566406"
         stop-color="rgb(64.814758%, 38.696289%, 42.964172%)"
         stop-opacity="1"
         id="stop592" />
      <stop
         offset="0.570312"
         stop-color="rgb(64.674377%, 38.642883%, 42.897034%)"
         stop-opacity="1"
         id="stop593" />
      <stop
         offset="0.574219"
         stop-color="rgb(64.535522%, 38.591003%, 42.831421%)"
         stop-opacity="1"
         id="stop594" />
      <stop
         offset="0.578125"
         stop-color="rgb(64.396667%, 38.539124%, 42.765808%)"
         stop-opacity="1"
         id="stop595" />
      <stop
         offset="0.582031"
         stop-color="rgb(64.256287%, 38.487244%, 42.700195%)"
         stop-opacity="1"
         id="stop596" />
      <stop
         offset="0.585938"
         stop-color="rgb(64.117432%, 38.435364%, 42.634583%)"
         stop-opacity="1"
         id="stop597" />
      <stop
         offset="0.589844"
         stop-color="rgb(63.977051%, 38.383484%, 42.56897%)"
         stop-opacity="1"
         id="stop598" />
      <stop
         offset="0.59375"
         stop-color="rgb(63.838196%, 38.331604%, 42.501831%)"
         stop-opacity="1"
         id="stop599" />
      <stop
         offset="0.597656"
         stop-color="rgb(63.699341%, 38.278198%, 42.436218%)"
         stop-opacity="1"
         id="stop600" />
      <stop
         offset="0.601562"
         stop-color="rgb(63.55896%, 38.226318%, 42.370605%)"
         stop-opacity="1"
         id="stop601" />
      <stop
         offset="0.605469"
         stop-color="rgb(63.420105%, 38.174438%, 42.304993%)"
         stop-opacity="1"
         id="stop602" />
      <stop
         offset="0.609375"
         stop-color="rgb(63.28125%, 38.122559%, 42.23938%)"
         stop-opacity="1"
         id="stop603" />
      <stop
         offset="0.613281"
         stop-color="rgb(63.140869%, 38.070679%, 42.173767%)"
         stop-opacity="1"
         id="stop604" />
      <stop
         offset="0.617188"
         stop-color="rgb(63.002014%, 38.018799%, 42.106628%)"
         stop-opacity="1"
         id="stop605" />
      <stop
         offset="0.621094"
         stop-color="rgb(62.863159%, 37.966919%, 42.041016%)"
         stop-opacity="1"
         id="stop606" />
      <stop
         offset="0.625"
         stop-color="rgb(62.722778%, 37.915039%, 41.975403%)"
         stop-opacity="1"
         id="stop607" />
      <stop
         offset="0.628906"
         stop-color="rgb(62.513733%, 37.835693%, 41.877747%)"
         stop-opacity="1"
         id="stop608" />
      <stop
         offset="0.636719"
         stop-color="rgb(62.234497%, 37.731934%, 41.744995%)"
         stop-opacity="1"
         id="stop609" />
      <stop
         offset="0.644531"
         stop-color="rgb(61.956787%, 37.628174%, 41.61377%)"
         stop-opacity="1"
         id="stop610" />
      <stop
         offset="0.652344"
         stop-color="rgb(61.677551%, 37.522888%, 41.482544%)"
         stop-opacity="1"
         id="stop611" />
      <stop
         offset="0.660156"
         stop-color="rgb(61.398315%, 37.419128%, 41.349792%)"
         stop-opacity="1"
         id="stop612" />
      <stop
         offset="0.667969"
         stop-color="rgb(61.120605%, 37.315369%, 41.218567%)"
         stop-opacity="1"
         id="stop613" />
      <stop
         offset="0.675781"
         stop-color="rgb(60.84137%, 37.211609%, 41.087341%)"
         stop-opacity="1"
         id="stop614" />
      <stop
         offset="0.683594"
         stop-color="rgb(60.562134%, 37.106323%, 40.95459%)"
         stop-opacity="1"
         id="stop615" />
      <stop
         offset="0.691406"
         stop-color="rgb(60.282898%, 37.002563%, 40.823364%)"
         stop-opacity="1"
         id="stop616" />
      <stop
         offset="0.699219"
         stop-color="rgb(60.005188%, 36.898804%, 40.692139%)"
         stop-opacity="1"
         id="stop617" />
      <stop
         offset="0.707031"
         stop-color="rgb(59.725952%, 36.795044%, 40.559387%)"
         stop-opacity="1"
         id="stop618" />
      <stop
         offset="0.714844"
         stop-color="rgb(59.446716%, 36.689758%, 40.428162%)"
         stop-opacity="1"
         id="stop619" />
      <stop
         offset="0.722656"
         stop-color="rgb(59.169006%, 36.585999%, 40.296936%)"
         stop-opacity="1"
         id="stop620" />
      <stop
         offset="0.730469"
         stop-color="rgb(58.889771%, 36.482239%, 40.164185%)"
         stop-opacity="1"
         id="stop621" />
      <stop
         offset="0.738281"
         stop-color="rgb(58.610535%, 36.378479%, 40.032959%)"
         stop-opacity="1"
         id="stop622" />
      <stop
         offset="0.746094"
         stop-color="rgb(58.331299%, 36.273193%, 39.900208%)"
         stop-opacity="1"
         id="stop623" />
      <stop
         offset="0.753906"
         stop-color="rgb(58.122253%, 36.195374%, 39.801025%)"
         stop-opacity="1"
         id="stop624" />
      <stop
         offset="0.757812"
         stop-color="rgb(57.983398%, 36.143494%, 39.735413%)"
         stop-opacity="1"
         id="stop625" />
      <stop
         offset="0.761719"
         stop-color="rgb(57.844543%, 36.091614%, 39.6698%)"
         stop-opacity="1"
         id="stop626" />
      <stop
         offset="0.765625"
         stop-color="rgb(57.704163%, 36.039734%, 39.604187%)"
         stop-opacity="1"
         id="stop627" />
      <stop
         offset="0.769531"
         stop-color="rgb(57.565308%, 35.987854%, 39.538574%)"
         stop-opacity="1"
         id="stop628" />
      <stop
         offset="0.773438"
         stop-color="rgb(57.426453%, 35.934448%, 39.472961%)"
         stop-opacity="1"
         id="stop629" />
      <stop
         offset="0.777344"
         stop-color="rgb(57.286072%, 35.882568%, 39.405823%)"
         stop-opacity="1"
         id="stop630" />
      <stop
         offset="0.78125"
         stop-color="rgb(57.147217%, 35.830688%, 39.34021%)"
         stop-opacity="1"
         id="stop631" />
      <stop
         offset="0.785156"
         stop-color="rgb(57.008362%, 35.778809%, 39.274597%)"
         stop-opacity="1"
         id="stop632" />
      <stop
         offset="0.789062"
         stop-color="rgb(56.867981%, 35.726929%, 39.208984%)"
         stop-opacity="1"
         id="stop633" />
      <stop
         offset="0.792969"
         stop-color="rgb(56.729126%, 35.675049%, 39.143372%)"
         stop-opacity="1"
         id="stop634" />
      <stop
         offset="0.796875"
         stop-color="rgb(56.590271%, 35.623169%, 39.077759%)"
         stop-opacity="1"
         id="stop635" />
      <stop
         offset="0.800781"
         stop-color="rgb(56.44989%, 35.571289%, 39.01062%)"
         stop-opacity="1"
         id="stop636" />
      <stop
         offset="0.804688"
         stop-color="rgb(56.311035%, 35.517883%, 38.945007%)"
         stop-opacity="1"
         id="stop637" />
      <stop
         offset="0.808594"
         stop-color="rgb(56.170654%, 35.466003%, 38.879395%)"
         stop-opacity="1"
         id="stop638" />
      <stop
         offset="0.8125"
         stop-color="rgb(56.031799%, 35.414124%, 38.813782%)"
         stop-opacity="1"
         id="stop639" />
      <stop
         offset="0.816406"
         stop-color="rgb(55.822754%, 35.336304%, 38.7146%)"
         stop-opacity="1"
         id="stop640" />
      <stop
         offset="0.824219"
         stop-color="rgb(55.543518%, 35.232544%, 38.583374%)"
         stop-opacity="1"
         id="stop641" />
      <stop
         offset="0.832031"
         stop-color="rgb(55.265808%, 35.127258%, 38.452148%)"
         stop-opacity="1"
         id="stop642" />
      <stop
         offset="0.839844"
         stop-color="rgb(54.986572%, 35.023499%, 38.319397%)"
         stop-opacity="1"
         id="stop643" />
      <stop
         offset="0.847656"
         stop-color="rgb(54.707336%, 34.919739%, 38.188171%)"
         stop-opacity="1"
         id="stop644" />
      <stop
         offset="0.855469"
         stop-color="rgb(54.429626%, 34.815979%, 38.056946%)"
         stop-opacity="1"
         id="stop645" />
      <stop
         offset="0.863281"
         stop-color="rgb(54.150391%, 34.710693%, 37.924194%)"
         stop-opacity="1"
         id="stop646" />
      <stop
         offset="0.871094"
         stop-color="rgb(53.871155%, 34.606934%, 37.792969%)"
         stop-opacity="1"
         id="stop647" />
      <stop
         offset="0.878906"
         stop-color="rgb(53.662109%, 34.529114%, 37.693787%)"
         stop-opacity="1"
         id="stop648" />
      <stop
         offset="0.882812"
         stop-color="rgb(53.523254%, 34.477234%, 37.628174%)"
         stop-opacity="1"
         id="stop649" />
      <stop
         offset="0.886719"
         stop-color="rgb(53.382874%, 34.425354%, 37.562561%)"
         stop-opacity="1"
         id="stop650" />
      <stop
         offset="0.890625"
         stop-color="rgb(53.244019%, 34.371948%, 37.496948%)"
         stop-opacity="1"
         id="stop651" />
      <stop
         offset="0.894531"
         stop-color="rgb(53.105164%, 34.320068%, 37.42981%)"
         stop-opacity="1"
         id="stop652" />
      <stop
         offset="0.898438"
         stop-color="rgb(52.964783%, 34.268188%, 37.364197%)"
         stop-opacity="1"
         id="stop653" />
      <stop
         offset="0.902344"
         stop-color="rgb(52.825928%, 34.216309%, 37.298584%)"
         stop-opacity="1"
         id="stop654" />
      <stop
         offset="0.90625"
         stop-color="rgb(52.687073%, 34.164429%, 37.232971%)"
         stop-opacity="1"
         id="stop655" />
      <stop
         offset="0.910156"
         stop-color="rgb(52.478027%, 34.086609%, 37.133789%)"
         stop-opacity="1"
         id="stop656" />
      <stop
         offset="0.917969"
         stop-color="rgb(52.198792%, 33.981323%, 37.002563%)"
         stop-opacity="1"
         id="stop657" />
      <stop
         offset="0.925781"
         stop-color="rgb(51.919556%, 33.877563%, 36.871338%)"
         stop-opacity="1"
         id="stop658" />
      <stop
         offset="0.933594"
         stop-color="rgb(51.64032%, 33.773804%, 36.738586%)"
         stop-opacity="1"
         id="stop659" />
      <stop
         offset="0.941406"
         stop-color="rgb(51.431274%, 33.695984%, 36.639404%)"
         stop-opacity="1"
         id="stop660" />
      <stop
         offset="0.945312"
         stop-color="rgb(51.292419%, 33.644104%, 36.573792%)"
         stop-opacity="1"
         id="stop661" />
      <stop
         offset="0.949219"
         stop-color="rgb(51.153564%, 33.590698%, 36.508179%)"
         stop-opacity="1"
         id="stop662" />
      <stop
         offset="0.953125"
         stop-color="rgb(51.013184%, 33.538818%, 36.442566%)"
         stop-opacity="1"
         id="stop663" />
      <stop
         offset="0.957031"
         stop-color="rgb(50.804138%, 33.460999%, 36.343384%)"
         stop-opacity="1"
         id="stop664" />
      <stop
         offset="0.964844"
         stop-color="rgb(50.526428%, 33.357239%, 36.212158%)"
         stop-opacity="1"
         id="stop665" />
      <stop
         offset="0.972656"
         stop-color="rgb(50.317383%, 33.279419%, 36.112976%)"
         stop-opacity="1"
         id="stop666" />
      <stop
         offset="0.976562"
         stop-color="rgb(50.177002%, 33.227539%, 36.047363%)"
         stop-opacity="1"
         id="stop667" />
      <stop
         offset="0.980469"
         stop-color="rgb(49.967957%, 33.148193%, 35.948181%)"
         stop-opacity="1"
         id="stop668" />
      <stop
         offset="0.988281"
         stop-color="rgb(49.758911%, 33.070374%, 35.848999%)"
         stop-opacity="1"
         id="stop669" />
      <stop
         offset="0.992188"
         stop-color="rgb(49.549866%, 32.992554%, 35.751343%)"
         stop-opacity="1"
         id="stop670" />
      <stop
         offset="1"
         stop-color="rgb(49.411011%, 32.940674%, 35.68573%)"
         stop-opacity="1"
         id="stop671" />
    </radialGradient>
  </defs>
  <g
     clip-path="url(#clip-8)"
     id="g874">
    <g
       clip-path="url(#clip-9)"
       id="g873">
      <g
         clip-path="url(#clip-10)"
         id="g872">
        <path
           fill-rule="nonzero"
           fill="url(#radial-pattern-3)"
           d="M 0,1212.2969 V 2160 h 3839.6406 v -947.7031 z m 0,0"
           id="path871"
           style="fill:url(#radial-pattern-3)" />
      </g>
    </g>
  </g>
</svg>
